<?xml version="1.0" standalone="no"?>
<!DOCTYPE svg PUBLIC "-//W3C//DTD SVG 1.1//EN" "http://www.w3.org/Graphics/SVG/1.1/DTD/svg11.dtd" >
<svg xmlns="http://www.w3.org/2000/svg">
<metadata></metadata>
<defs>
<font id="karnvaylaregular" horiz-adv-x="0" >
<font-face units-per-em="2048" ascent="1655" descent="-393" />
<missing-glyph horiz-adv-x="656" />
<glyph unicode="&#xe2f;&#xe2f;" horiz-adv-x="1392" d="M88 1294q0 53 8 90.5t13 58.5h203q-8 -30 -15 -63t-7 -70q0 -42 25.5 -67.5t88.5 -25.5q102 0 171.5 66t97.5 160h153v-1443h-203v1169q-33 -30 -100.5 -67t-163.5 -37q-135 0 -203 59.5t-68 169.5zM978 0v1440h201v-1440h-201z" />
<glyph unicode="&#xe4f;&#x22;" horiz-adv-x="1428" d="M133 679q0 175 46.5 303t126.5 212t186.5 123.5t223.5 39.5q115 0 220 -39.5t185 -123.5t127.5 -212t47.5 -303q0 -176 -47.5 -304t-127.5 -212t-185 -123.5t-220 -39.5q-117 0 -223.5 39.5t-186.5 123.5t-126.5 212t-46.5 304zM292 679q0 -280 116 -417t308 -137 q191 0 303 137t112 417q0 279 -112 416t-303 137t-307.5 -137t-116.5 -416zM511 679q0 144 58.5 207.5t144.5 63.5t144 -63.5t58 -207.5q0 -130 -60 -194t-142 -64t-142.5 64t-60.5 194z" />
<glyph unicode="&#xe24;&#xe32;" horiz-adv-x="2291" d="M122 1174v117q142 74 294.5 123.5t281.5 49.5q247 0 366.5 -117t119.5 -316v-1455h-204v1455q0 114 -59.5 185.5t-222.5 71.5q-91 0 -178.5 -21.5t-178.5 -65.5v-8l45 -40v-873q0 -62 16.5 -87t60.5 -25q21 0 38.5 4t28.5 6v-165q-26 -8 -62 -14.5t-84 -6.5 q-36 0 -71.5 12t-65 43.5t-48 85t-18.5 136.5v865zM1278 1184v190q30 16 75 31t95.5 26.5t100 19.5t89.5 8q135 0 223 -32t141 -103.5t74.5 -185.5t21.5 -272v-1276h-203v1228q0 132 -9 221t-34.5 142.5t-73.5 75t-127 21.5q-94 0 -190.5 -30.5t-182.5 -63.5z" />
<glyph unicode="&#xe26;&#xe32;" horiz-adv-x="2302" d="M35 13v165q11 -2 27.5 -6t38.5 -4q49 0 63 25t14 87v854l-58 40v117q141 74 294 123.5t282 49.5q246 0 366 -117t120 -316v-1457h-204v1457q0 114 -60.5 185.5t-221.5 71.5q-92 0 -179.5 -21.5t-178.5 -65.5v-8l46 -40v-884q0 -82 -19 -136t-48.5 -85.5t-66.5 -43.5 t-72 -12q-45 0 -79.5 6.5t-63.5 14.5zM1288 1184v190q33 16 77.5 31t95.5 26.5t100.5 19.5t89.5 8q135 0 223 -32t141 -103.5t74.5 -185.5t21.5 -272v-1276h-205v1228q0 132 -8 221t-33 142.5t-73.5 75t-127.5 21.5q-94 0 -192 -30.5t-184 -63.5z" />
<glyph unicode="fi" horiz-adv-x="1301" d="M74 1080v185h165v145q0 89 21.5 160t71 119.5t130.5 74t201 25.5q82 0 182 -14.5t201 -36.5v-178q-93 26 -187.5 38.5t-162.5 12.5q-77 0 -126 -12t-74 -36t-33 -57t-8 -76v-165h645v-1265h-216v1080h-429v-1080h-216v1080h-165z" />
<glyph unicode="fl" horiz-adv-x="1339" d="M74 1080v185h165v145q0 89 21.5 160t71 119.5t130.5 74t201 25.5q82 0 141 -6.5t80 -11.5h216v-1476q0 -66 17 -92.5t67 -26.5q21 0 38.5 5t29.5 7v-175q-26 -5 -64 -11.5t-88 -6.5q-38 0 -76.5 13t-69 45.5t-50.5 88.5t-20 140v1316q-53 5 -102.5 9t-85.5 4 q-77 0 -126 -12t-74 -36t-33 -57t-8 -76v-165h243v-185h-243v-1080h-216v1080h-165z" />
<glyph unicode=" "  horiz-adv-x="656" />
<glyph unicode="&#x09;" horiz-adv-x="656" />
<glyph unicode="&#xa0;" horiz-adv-x="656" />
<glyph unicode="!" horiz-adv-x="630" d="M188 0v254h254v-254h-254zM208 528v1243h216v-1243h-216z" />
<glyph unicode="&#x22;" horiz-adv-x="910" d="M138 1542v229h240v-229l-50 -397h-140zM530 1542v229h242v-229l-50 -397h-142z" />
<glyph unicode="#" horiz-adv-x="1186" d="M74 455l17 190h178l46 505h-180l17 189h176l40 432h201l-39 -432h202l40 432h203l-40 -432h178l-16 -189h-175l-46 -505h176l-16 -190h-175l-41 -455h-202l40 455h-203l-40 -455h-202l41 455h-180zM471 645h202l46 505h-203z" />
<glyph unicode="$" horiz-adv-x="1288" d="M208 1249q0 115 26.5 191.5t71.5 124.5t105 75t125 45v288h215v-266q64 -3 142.5 -14t130.5 -24v-183q-66 13 -159 24.5t-159 11.5q-48 0 -96 -5t-88 -29t-65 -73t-25 -137q0 -82 16.5 -132.5t46 -80t72.5 -45.5t93 -27q91 -18 168 -46t134 -82.5t89.5 -144.5t32.5 -230 q0 -135 -26.5 -221t-72 -138t-106.5 -80t-128 -43v-288h-215v267q-64 3 -151 12t-148 24v188q29 -8 70 -15.5t88 -12.5t95 -7.5t90 -2.5q66 0 117 12.5t87 44t54.5 89t18.5 146.5q0 102 -19.5 160.5t-51.5 90.5t-73.5 45.5t-84.5 21.5q-96 18 -174 53t-133 89.5t-84 132.5 t-29 191z" />
<glyph unicode="%" horiz-adv-x="2164" d="M216 1265q0 119 13 215t50.5 165.5t105 106.5t177.5 37q111 0 179.5 -37t105.5 -106.5t48.5 -165.5t11.5 -215q0 -120 -13 -220t-50 -172t-105 -111.5t-177 -39.5q-110 0 -177.5 39.5t-105 111.5t-50.5 172t-13 220zM389 1254q0 -205 37 -294t136 -89q96 0 133 90.5 t37 292.5q0 206 -37 296.5t-133 90.5q-99 0 -136 -90t-37 -297zM676 0l618 1771h197l-617 -1771h-198zM1257 528q0 117 13 213.5t50 165t105.5 105.5t177.5 37q112 0 179.5 -37t105 -105.5t49.5 -165t12 -213.5q0 -120 -13 -220t-51 -172t-105.5 -113t-176.5 -41t-177.5 41 t-105.5 113t-50 171.5t-13 220.5zM1433 516q0 -208 37 -297t133 -89q99 0 136 90.5t37 295.5q0 203 -37 293.5t-136 90.5q-96 0 -133 -89t-37 -295z" />
<glyph unicode="&#x26;" horiz-adv-x="1283" d="M165 500q0 94 9 180.5t32 156.5t62 122t100 75q-91 53 -130.5 125.5t-39.5 192.5q0 142 34 228.5t96.5 133t146.5 61t183 14.5q96 0 163.5 -15.5t88.5 -23.5v-185q-10 3 -41 10t-69 12t-78.5 10.5t-68.5 5.5q-49 0 -91.5 -6.5t-76 -30.5t-53.5 -69.5t-20 -119.5 q0 -109 45.5 -186.5t167.5 -77.5h594v-183h-210v-917q-96 -16 -194.5 -23.5t-217.5 -7.5q-211 0 -321.5 118t-110.5 400zM381 477q0 -149 61 -229t157 -80q77 0 130.5 6.5t80.5 11.5v744h-224q-66 0 -106.5 -39t-63 -103t-29 -145t-6.5 -166z" />
<glyph unicode="'" horiz-adv-x="518" d="M138 1542v229h240v-229l-50 -397h-140z" />
<glyph unicode="(" horiz-adv-x="808" d="M138 884q0 178 16 338t52 306t96.5 282t144.5 264h211q-80 -133 -137.5 -267.5t-94.5 -278.5t-54.5 -302.5t-17.5 -341.5q0 -181 17.5 -339.5t54.5 -302t94 -278t138 -267.5h-211q-86 127 -145.5 263t-95.5 282.5t-52 306t-16 335.5z" />
<glyph unicode=")" horiz-adv-x="808" d="M152 -303q79 133 136.5 267.5t95 278t54.5 302t17 339.5q0 183 -17 341.5t-54.5 302.5t-95 278.5t-136.5 267.5h211q170 -259 239 -547.5t69 -642.5t-69 -642t-239 -545h-211z" />
<glyph unicode="*" horiz-adv-x="1212" d="M101 1384l69 203l358 -147l-35 386h229l-36 -386l363 142l64 -200l-373 -81l269 -310l-181 -130l-224 358l-228 -358l-178 132l270 308z" />
<glyph unicode="+" horiz-adv-x="1389" d="M213 696v188h381v402h202v-402h380v-188h-380v-398h-202v398h-381z" />
<glyph unicode="," horiz-adv-x="579" d="M64 -354l101 354v254h254v-254l-185 -354h-170z" />
<glyph unicode="-" horiz-adv-x="1250" d="M216 696v188h820v-188h-820z" />
<glyph unicode="." horiz-adv-x="579" d="M165 0v254h254v-254h-254z" />
<glyph unicode="/" horiz-adv-x="821" d="M13 -280l597 2328h200l-597 -2328h-200z" />
<glyph unicode="0" horiz-adv-x="1263" d="M130 905q0 223 23 388.5t80 276t154.5 165t242.5 54.5q150 0 247.5 -54.5t154.5 -165t79.5 -276t22.5 -388.5q0 -232 -22.5 -406t-81 -288.5t-156 -171.5t-244.5 -57q-146 0 -243 57t-154 171.5t-80 288.5t-23 406zM346 892q0 -206 16 -344t50.5 -222t88 -121t129.5 -37 q75 0 130 37t91 121t52 222t16 344q0 208 -16 345t-52 218.5t-90.5 114.5t-130.5 33q-74 0 -128.5 -33t-89 -114.5t-50.5 -218.5t-16 -345z" />
<glyph unicode="1" horiz-adv-x="1263" d="M231 1440v203l333 128h239v-1583h277v-188h-821v188h330v1382z" />
<glyph unicode="2" horiz-adv-x="1263" d="M188 0v224l457 551q66 79 107 133.5t65 113t34 131t10 186.5t-73.5 189t-193.5 75q-40 0 -91 -4t-100 -10.5t-94 -13.5t-75 -15v183q10 3 49 11.5t91 16t110.5 13t109.5 5.5q226 0 353.5 -118.5t127.5 -354.5q0 -99 -10.5 -177.5t-35.5 -150.5t-70.5 -142.5 t-114.5 -149.5l-425 -510h630v-186h-861z" />
<glyph unicode="3" horiz-adv-x="1263" d="M203 23v193q23 -5 70 -11.5t101.5 -14t110.5 -11t95 -3.5q48 0 96 18.5t85 57t60 94.5t23 131q0 89 -9 154t-37 108.5t-81.5 66t-139.5 22.5h-257v183h231q96 0 149.5 34.5t80 84t32 103t5.5 90.5q0 75 -20.5 128t-53.5 86t-76 49.5t-91 16.5q-43 0 -94 -4t-102 -10.5 t-95 -15t-70 -13.5v183q10 3 48.5 10t90.5 15t110.5 14.5t106.5 6.5q99 0 182.5 -24t145 -80t98 -150.5t36.5 -235.5q0 -128 -44.5 -230.5t-151.5 -133.5q125 -19 174.5 -134t49.5 -301q0 -141 -34.5 -239.5t-98 -160.5t-152 -90t-193.5 -28q-46 0 -109 6.5t-120 14 t-100.5 14t-51.5 6.5z" />
<glyph unicode="4" horiz-adv-x="1263" d="M173 394v218l251 1159h204l-242 -1191h389l15 576h198v-576h178v-186h-178v-394h-213v394h-602z" />
<glyph unicode="5" horiz-adv-x="1263" d="M208 23v188q16 -6 57.5 -13t94 -13.5t111.5 -11.5t113 -5q112 0 182 90t70 253q0 109 -19 181t-54.5 113t-86.5 58.5t-114 17.5h-331v890h773v-184h-557v-522h102q274 0 389.5 -127.5t115.5 -401.5q0 -158 -35.5 -264.5t-100 -170t-152 -91.5t-191.5 -28q-49 0 -101.5 5 t-103 11.5t-93.5 13t-69 11.5z" />
<glyph unicode="6" horiz-adv-x="1263" d="M142 961q0 261 44.5 423.5t123.5 251.5t184 121t225 32q30 0 72 -4t86.5 -10.5t81.5 -13t52 -11.5v-180q-50 13 -143 27t-176 14q-69 0 -127.5 -20.5t-104 -80t-71.5 -171.5t-33 -295q43 30 133.5 54.5t186.5 24.5q133 0 220 -39.5t137.5 -113t70 -179t19.5 -235.5 q0 -162 -41 -271t-110.5 -177t-159.5 -97t-187 -29q-117 0 -207 34.5t-151.5 139.5t-93 297t-31.5 508zM356 874q0 -237 21.5 -377.5t57.5 -214.5t85 -95.5t105 -21.5q120 0 201 94.5t81 273.5q0 216 -57 311.5t-192 95.5q-48 0 -97.5 -8t-90.5 -19t-71.5 -22.5t-42.5 -16.5 z" />
<glyph unicode="7" horiz-adv-x="1263" d="M195 1582v189h872v-245l-508 -1526h-226l538 1582h-676z" />
<glyph unicode="8" horiz-adv-x="1263" d="M120 500q0 104 18.5 170.5t50.5 112t70.5 73.5t78.5 54q-91 46 -137 153.5t-46 235.5q0 141 38 235.5t104 150.5t152.5 80t180.5 24q99 0 185.5 -24t152.5 -80t104 -150.5t38 -235.5q0 -125 -39.5 -209t-157.5 -150q124 -30 178 -142t54 -298q0 -266 -128 -392t-387 -126 q-258 0 -384 126t-126 392zM333 477q0 -91 22.5 -151t62.5 -95.5t94.5 -50.5t117.5 -15q67 0 122 15t95 50.5t62.5 95.5t22.5 151q0 200 -97.5 284.5t-326.5 84.5q-50 -30 -84.5 -57t-55 -68.5t-28 -100t-7.5 -143.5zM365 1323q0 -175 97 -248.5t280 -73.5 q91 38 124.5 125.5t33.5 196.5q0 142 -70.5 212.5t-199.5 70.5q-127 0 -196 -71t-69 -212z" />
<glyph unicode="9" horiz-adv-x="1263" d="M142 1257q0 147 42 248t111.5 164.5t158.5 91.5t182 28q122 0 214 -37t153.5 -138.5t90.5 -277t29 -452.5q0 -303 -39.5 -483t-111.5 -273t-174 -119.5t-226 -26.5q-30 0 -73.5 4t-87 10.5t-81.5 13t-53 11.5v184q51 -13 144 -26.5t176 -13.5q66 0 122 19t95.5 77.5 t62.5 169t28 293.5q-21 -13 -54 -26.5t-76 -25.5t-91 -18.5t-95 -6.5q-127 0 -214.5 40t-139.5 117t-72.5 190.5t-20.5 262.5zM356 1238q0 -216 58 -311.5t193 -95.5q48 0 96 7.5t90.5 18.5t71.5 23t42 17q0 237 -20.5 376.5t-58.5 214.5t-88.5 96.5t-109.5 21.5 q-116 0 -195 -94.5t-79 -273.5z" />
<glyph unicode=":" horiz-adv-x="579" d="M165 0v254h254v-254h-254zM165 1011v254h254v-254h-254z" />
<glyph unicode=";" horiz-adv-x="579" d="M64 -354l101 354v254h254v-254l-185 -354h-170zM165 1011v254h254v-254h-254z" />
<glyph unicode="&#x3c;" horiz-adv-x="1389" d="M216 708v267l960 452v-234l-785 -344l785 -346v-237z" />
<glyph unicode="=" horiz-adv-x="1389" d="M216 442v188h960v-188h-960zM216 948v188h960v-188h-960z" />
<glyph unicode="&#x3e;" horiz-adv-x="1389" d="M216 266v237l798 346l-798 344v234l960 -452v-267z" />
<glyph unicode="?" horiz-adv-x="910" d="M88 1563v183q51 10 133 26.5t152 16.5q104 0 188 -15.5t141 -62.5t89 -129.5t32 -215.5q0 -74 -6.5 -123.5t-26.5 -93.5t-57 -93.5t-103 -123.5l-135 -162v-242h-215v305l152 178q61 72 96.5 117.5t53 83t21.5 77.5t4 101q0 122 -57 167.5t-154 45.5q-76 0 -161 -13.5 t-147 -26.5zM264 0v254h252v-254h-252z" />
<glyph unicode="@" horiz-adv-x="2060" d="M216 874q0 266 42 443t139.5 282t253.5 147.5t383 42.5q223 0 377 -30.5t250.5 -116t140 -236t43.5 -392.5q0 -144 -12 -274t-51 -230t-110.5 -159t-190.5 -59q-33 0 -70 10t-71.5 32t-61 58.5t-38.5 89.5q-38 -50 -113 -83.5t-185 -33.5q-61 0 -120.5 17t-107.5 69 t-79 146.5t-31 248.5q0 163 41 267t113.5 162.5t168 80t207.5 21.5q56 0 128 -12.5t128 -25.5v-780q0 -38 25 -69.5t71 -31.5q48 0 78.5 39t46 110.5t21.5 175.5t6 231q0 186 -21.5 302.5t-87 181.5t-184 87.5t-311.5 22.5q-189 0 -308 -34.5t-185.5 -118t-90.5 -225 t-24 -356.5q0 -195 19.5 -331t83 -220t180.5 -122.5t313 -38.5q45 0 103.5 4t114.5 8t104 9t76 8v-178q-33 -5 -82.5 -10.5t-104 -10.5t-110.5 -7.5t-101 -2.5q-245 0 -401 47.5t-246 154t-124.5 276.5t-34.5 414zM807 857q0 -104 13 -165.5t38.5 -95.5t60 -44.5t77.5 -10.5 q56 0 93 15.5t61 41t33.5 54.5t9.5 59v482q-13 6 -39 9.5t-54 3.5q-59 0 -112 -13.5t-93.5 -50.5t-64 -105.5t-23.5 -179.5z" />
<glyph unicode="A" horiz-adv-x="1314" d="M64 0l452 1771h291l445 -1771h-224l-112 447h-517l-112 -447h-223zM439 636h437l-218 967z" />
<glyph unicode="B" horiz-adv-x="1344" d="M216 0v1771q76 2 152 7q64 6 136.5 8.5t135.5 2.5q247 0 378.5 -105.5t131.5 -357.5q0 -160 -63 -255.5t-139 -128.5q37 -12 80.5 -37.5t80 -72.5t60.5 -119.5t24 -179.5q0 -157 -36 -264t-102.5 -170.5t-164 -90t-219.5 -26.5q-79 0 -160.5 1t-147.5 7q-77 5 -147 10z M434 178q43 -2 87 -5q38 -3 85 -4t86 -1q61 0 111.5 13.5t88.5 50.5t57 104.5t19 179.5q0 163 -58 242.5t-214 79.5h-262v-660zM434 1022h237q48 0 94.5 7t84 35t60 85t22.5 159q0 79 -11 135t-40 91.5t-79.5 53.5t-130.5 18q-46 0 -89.5 -3t-75.5 -5q-41 -3 -72 -6v-570z " />
<glyph unicode="C" horiz-adv-x="1120" d="M165 913q0 279 37 451.5t110.5 266.5t184 126t260.5 32q61 0 142 -12t135 -25v-187q-64 16 -156.5 24.5t-166.5 8.5q-79 0 -139.5 -24t-100 -99t-61 -213.5t-21.5 -367.5q0 -239 21.5 -381.5t62.5 -218.5t102 -98.5t139 -22.5q40 0 85 4t89 9t82.5 12t63.5 13v-188 q-21 -5 -60 -11.5t-83.5 -13t-88 -11.5t-75.5 -5q-147 0 -252 39.5t-174.5 143.5t-102.5 284.5t-33 463.5z" />
<glyph unicode="D" horiz-adv-x="1380" d="M216 0v1771q74 2 152 7q66 6 141 8.5t141 2.5q144 0 250 -32t177 -126t105.5 -266.5t34.5 -451.5q0 -283 -33.5 -463.5t-99 -284.5t-166 -143.5t-237.5 -39.5q-77 0 -158 1t-150 7q-79 5 -157 10zM434 176q46 -3 94 -6q40 -2 87.5 -2h87.5q67 0 121.5 35.5t90 119.5 t56 223.5t20.5 347.5q0 227 -20.5 366.5t-56 215.5t-89 101.5t-119.5 25.5q-38 0 -83.5 -1.5t-86.5 -3.5q-48 -3 -102 -6v-1416z" />
<glyph unicode="E" horiz-adv-x="1222" d="M216 0v1771h854v-184h-636v-581h572v-183h-572v-640h636v-183h-854z" />
<glyph unicode="F" horiz-adv-x="1184" d="M216 0v1771h854v-184h-636v-604h572v-187h-572v-796h-218z" />
<glyph unicode="G" horiz-adv-x="1314" d="M165 913q0 279 39.5 451.5t117 266.5t192 126t263.5 32q33 0 75 -4t86.5 -9t84 -11.5t64.5 -12.5v-182q-79 16 -177 24.5t-178 8.5q-82 0 -146.5 -24t-108 -100t-66 -216t-22.5 -369q0 -239 21.5 -381.5t61 -219.5t98 -101t133.5 -24q46 0 111 5t116 10v562h-227v187h433 v-909q-101 -18 -209.5 -29.5t-210.5 -11.5q-147 0 -250 39.5t-170 143.5t-99 284.5t-32 463.5z" />
<glyph unicode="H" horiz-adv-x="1439" d="M216 0v1771h218v-770h572v770h221v-1771h-221v815h-572v-815h-218z" />
<glyph unicode="I" horiz-adv-x="800" d="M114 0v181h176v1409h-176v181h572v-181h-175v-1409h175v-181h-572z" />
<glyph unicode="J" horiz-adv-x="984" d="M88 21v187q56 -13 121 -24t121 -11q64 0 108 15t72 54.5t41 111.5t13 187v1049h-353v181h572v-1225q0 -162 -25.5 -270t-79 -173t-136 -93t-196.5 -28q-61 0 -131.5 11.5t-126.5 27.5z" />
<glyph unicode="K" horiz-adv-x="1293" d="M216 0v1771h218v-778l524 778h235l-527 -786l553 -985h-247l-442 801l-96 -141v-660h-218z" />
<glyph unicode="L" horiz-adv-x="1062" d="M216 0v1771h218v-1580h590v-191h-808z" />
<glyph unicode="M" horiz-adv-x="1591" d="M216 0v1771h205l380 -882l355 882h223v-1771h-210v1310l-295 -716h-160l-295 716v-1310h-203z" />
<glyph unicode="N" horiz-adv-x="1433" d="M216 0v1771h208l590 -1281v1281h205v-1771h-210l-588 1280v-1280h-205z" />
<glyph unicode="O" horiz-adv-x="1436" d="M165 905q0 223 28 388.5t91.5 276t170.5 165t264 54.5t263.5 -54.5t170.5 -165t92 -276t28 -388.5q0 -232 -28 -406t-92 -288.5t-170.5 -171.5t-263.5 -57t-264 57t-170.5 171.5t-91.5 288.5t-28 406zM389 892q0 -206 20 -344t59.5 -222t102 -121t148.5 -37t147 37 t100.5 121t59.5 222t20 344q0 208 -20 345t-59.5 218.5t-101.5 114.5t-146 33q-86 0 -148.5 -33t-102 -114.5t-59.5 -218.5t-20 -345z" />
<glyph unicode="P" horiz-adv-x="1288" d="M216 0v1771q69 2 147 7q66 6 146 8.5t159 2.5q144 0 240 -42.5t151.5 -116t80 -174.5t24.5 -218q0 -288 -111 -429t-380 -141h-239v-668h-218zM434 852h264q107 0 173 81t66 289q0 191 -52 287.5t-187 96.5q-53 0 -100 -3t-84 -5q-43 -3 -80 -6v-740z" />
<glyph unicode="Q" horiz-adv-x="1436" d="M165 905q0 223 28 388.5t91.5 276t170.5 165t264 54.5t263.5 -54.5t170.5 -165t92 -276t28 -388.5q0 -320 -66.5 -535t-210.5 -312l300 -58v-213l-577 195q-157 0 -264 57t-170.5 171.5t-91.5 288.5t-28 406zM389 892q0 -206 20 -344t59.5 -222t102 -121t148.5 -37 t147 37t100.5 121t59.5 222t20 344q0 208 -20 345t-59.5 218.5t-101.5 114.5t-146 33q-86 0 -148.5 -33t-102 -114.5t-59.5 -218.5t-20 -345z" />
<glyph unicode="R" horiz-adv-x="1327" d="M216 0v1771q69 2 147 7q66 6 146 8.5t159 2.5q144 0 238.5 -37t150.5 -105.5t78.5 -162.5t22.5 -211q0 -198 -58.5 -324t-194.5 -179l347 -770h-243l-325 732h-250v-732h-218zM434 919h264q53 0 96.5 13t74.5 50t48.5 102.5t17.5 169.5q0 184 -51 268t-186 84 q-53 0 -100 -3t-84 -5q-43 -3 -80 -6v-673z" />
<glyph unicode="S" horiz-adv-x="1146" d="M147 1299q0 135 41 228.5t111.5 152t166.5 84t205 25.5q32 0 70.5 -2.5t79 -9t77.5 -13t65 -14.5v-185q-32 8 -73 15t-84.5 12.5t-86.5 8t-74 2.5q-48 0 -96.5 -15t-86.5 -48t-63.5 -85t-25.5 -126q0 -77 11.5 -128t37 -84t67 -53t103.5 -30q90 -19 167 -52.5t134 -93.5 t89 -153.5t32 -231.5q0 -157 -39.5 -258t-110.5 -160t-168 -81t-208 -22q-30 0 -71 2.5t-85.5 7.5t-86.5 13t-75 16v184q59 -15 150.5 -26t193.5 -11q130 0 202 76t72 236q0 91 -17 151.5t-46 99.5t-72 60t-94 32q-107 21 -184 57t-127 92t-75.5 135.5t-25.5 191.5z" />
<glyph unicode="T" horiz-adv-x="1075" d="M38 1578v193h998v-193h-389v-1578h-218v1578h-391z" />
<glyph unicode="U" horiz-adv-x="1402" d="M203 468v1303h221v-1350q0 -132 82.5 -192.5t196.5 -60.5q115 0 197.5 59.5t82.5 193.5v1350h218v-1303q0 -127 -37.5 -220t-102.5 -151.5t-157 -86.5t-201 -28t-201 28t-158.5 86.5t-103.5 151.5t-37 220z" />
<glyph unicode="V" horiz-adv-x="1245" d="M88 1771h224l303 -1547l325 1547h218l-396 -1771h-302z" />
<glyph unicode="W" horiz-adv-x="1628" d="M147 1771h212l139 -1303l234 898h168l236 -898l144 1303h203l-187 -1771h-247l-234 922l-251 -922h-234z" />
<glyph unicode="X" horiz-adv-x="1303" d="M88 0l455 916l-418 855h243l290 -610l298 610h234l-423 -852l450 -919h-249l-313 679l-327 -679h-240z" />
<glyph unicode="Y" horiz-adv-x="1290" d="M51 1771h241l361 -735l358 735h229l-483 -948v-823h-227v823z" />
<glyph unicode="Z" horiz-adv-x="1151" d="M114 0v224l704 1361h-645v186h866v-224l-701 -1361h676v-186h-900z" />
<glyph unicode="[" horiz-adv-x="821" d="M216 -303v2377h480v-189h-277v-1999h277v-189h-480z" />
<glyph unicode="\" horiz-adv-x="821" d="M13 2048h200l597 -2328h-200z" />
<glyph unicode="]" horiz-adv-x="821" d="M125 -114h279v1999h-279v189h482v-2377h-482v189z" />
<glyph unicode="^" horiz-adv-x="1232" d="M114 1062l366 861h287l351 -861h-231l-262 709l-290 -709h-221z" />
<glyph unicode="_" horiz-adv-x="1288" d="M8 -239h1275v-193h-1275v193z" />
<glyph unicode="`" horiz-adv-x="765" d="M120 1808h274l264 -342h-206z" />
<glyph unicode="a" horiz-adv-x="1215" d="M125 365q0 206 117 310.5t335 104.5h200v136q0 80 -48 132t-143 52q-109 0 -190 -12.5t-175 -41.5v186q69 21 158 36t183 15q122 0 204.5 -25.5t132 -76t71 -130t21.5 -185.5v-607q0 -38 25 -60.5t86 -22.5v-176h-74q-18 0 -45 5t-55 19t-52 38t-40 63 q-46 -69 -118.5 -106t-201.5 -37q-183 0 -287 100.5t-104 282.5zM346 378q0 -114 50.5 -163.5t157.5 -49.5q66 0 109 20t68.5 48t35.5 58.5t10 49.5v266h-213q-88 0 -153 -52t-65 -177z" />
<glyph unicode="b" horiz-adv-x="1261" d="M203 13v1758h216v-600q55 54 124 83t155 29q221 0 310 -143.5t89 -425.5q0 -208 -28 -348t-90.5 -226.5t-165 -122t-254.5 -35.5q-135 0 -211 10.5t-145 20.5zM419 176q29 -6 69 -8.5t96 -2.5q91 0 147.5 32t89.5 97t45.5 163.5t12.5 228.5q0 120 -12.5 200t-38 128 t-67.5 67t-103 19q-54 0 -98 -20t-76 -52t-48.5 -70.5t-16.5 -73.5v-708z" />
<glyph unicode="c" horiz-adv-x="1021" d="M165 658q0 170 25.5 288.5t80 193t137 109t196.5 34.5q62 0 143 -13t137 -27v-186q-72 15 -135 25t-160 10q-56 0 -95 -23t-63 -78.5t-35.5 -149t-11.5 -234.5q0 -144 14 -229.5t40.5 -130t64.5 -59.5t86 -15q104 0 171.5 12.5t123.5 25.5v-188q-61 -18 -134.5 -29.5 t-142.5 -11.5q-109 0 -191.5 24t-138.5 95.5t-84 204.5t-28 352z" />
<glyph unicode="d" horiz-adv-x="1274" d="M165 577q0 186 32 320t99 220.5t170 126t250 39.5q46 0 79 -2.5t62 -7.5v498h215v-1771h-178l-15 107q-59 -61 -132.5 -93t-169.5 -32q-119 0 -199 37t-127.5 111.5t-66.5 186.5t-19 260zM384 551q0 -114 13 -189t42 -118.5t73 -61t106 -17.5q58 0 103.5 20t75 52t45 69 t15.5 72v711q-30 6 -69.5 8.5t-98.5 2.5q-91 0 -149 -36t-93 -106.5t-49 -173.5t-14 -233z" />
<glyph unicode="e" horiz-adv-x="1184" d="M165 630q0 352 115.5 502.5t344.5 150.5q219 0 314 -142.5t95 -395.5v-189h-656q3 -124 18.5 -201.5t43.5 -118.5t67 -56t87 -15q104 0 193 13t148 27v-182q-33 -7 -72.5 -15t-82.5 -14.5t-84 -9t-76 -2.5q-109 0 -194 22t-143.5 91.5t-88 197.5t-29.5 337zM381 729h442 v67q0 144 -45.5 225t-157.5 81q-61 0 -103.5 -17.5t-72 -59.5t-44 -114.5t-19.5 -181.5z" />
<glyph unicode="f" horiz-adv-x="785" d="M74 1080v185h165v196q0 165 90 246.5t233 81.5q82 0 141 -12t95 -19v-180q-40 11 -87.5 19.5t-116.5 8.5t-104 -36t-35 -89v-216h307v-185h-307v-1080h-216v1080h-165z" />
<glyph unicode="g" horiz-adv-x="1316" d="M152 841q0 135 42.5 222t114.5 136.5t167.5 66.5t202.5 17q109 0 197 -38l364 20v-190l-173 9q59 -112 59 -261q0 -216 -125 -321.5t-386 -105.5q-96 0 -168 16q-23 -53 -23 -109q0 -72 41 -72q69 0 146.5 11.5t139.5 11.5q91 0 168 -15t133 -58t87.5 -116t31.5 -190 q0 -96 -37 -162.5t-101.5 -110.5t-152 -64t-188.5 -20q-48 0 -116 5.5t-137 12t-132 14.5t-96 16v180q48 -7 109 -15t128.5 -14.5t136 -9t129.5 -2.5q127 0 181.5 48.5t54.5 121.5q0 96 -43.5 142.5t-169.5 46.5q-35 0 -84 -4t-98 -10.5t-91.5 -10.5t-67.5 -4 q-29 0 -61 19.5t-58 53.5t-43.5 76t-17.5 90q0 77 17.5 125t48.5 86q-71 56 -100.5 145t-29.5 211zM368 823q0 -53 11.5 -100t39.5 -80t76 -52t120 -19q64 0 117 11t93.5 40.5t62.5 80.5t22 137q0 53 -11.5 100t-41 83t-80 57t-124.5 21q-165 0 -225 -67t-60 -212z" />
<glyph unicode="h" horiz-adv-x="1280" d="M203 0v1771h216v-600q58 54 129.5 83t159.5 29q216 0 298.5 -109t82.5 -341v-833h-213v861q0 119 -40 179t-165 60q-53 0 -100 -20t-81.5 -52t-52.5 -70.5t-18 -73.5v-884h-216z" />
<glyph unicode="i" horiz-adv-x="620" d="M188 1542v229h241v-229h-241zM203 0v1265h216v-1265h-216z" />
<glyph unicode="j" horiz-adv-x="620" d="M-117 -251q40 -5 98.5 -7.5t90.5 -2.5q130 0 131 139v1387h216v-1374q0 -142 -79 -237.5t-236 -95.5q-61 0 -114.5 2.5t-106.5 7.5v181zM188 1542v229h241v-229h-241z" />
<glyph unicode="k" horiz-adv-x="1173" d="M203 0v1771h216v-961l384 455h264l-427 -488l447 -777h-254l-340 630l-74 -89v-541h-216z" />
<glyph unicode="l" horiz-adv-x="670" d="M203 282v1489h216v-1476q0 -66 15.5 -92.5t65.5 -26.5q21 0 40 5t29 7v-175q-29 -5 -66.5 -13t-83.5 -8q-38 0 -77 13t-69.5 47t-50 90t-19.5 140z" />
<glyph unicode="m" horiz-adv-x="1844" d="M203 0v1265h175l18 -112q118 130 285 130q120 0 192 -45t112 -115q120 160 316 160q195 0 275 -108t80 -342v-833h-216v861q0 119 -33 179t-142 60q-51 0 -94 -20t-72 -52t-46 -70.5t-17 -73.5v-884h-213v861q0 119 -34.5 179t-143.5 60q-51 0 -92.5 -20t-72 -52 t-46 -70.5t-15.5 -73.5v-884h-216z" />
<glyph unicode="n" horiz-adv-x="1280" d="M203 0v1265h175l18 -115q125 133 312 133q216 0 298.5 -109t82.5 -341v-833h-213v861q0 119 -40 179t-165 60q-53 0 -100 -20t-81.5 -52t-52.5 -70.5t-18 -73.5v-884h-216z" />
<glyph unicode="o" horiz-adv-x="1288" d="M165 658q0 322 115.5 473.5t364.5 151.5q251 0 366 -151.5t115 -473.5q0 -200 -30.5 -330t-92 -207.5t-151.5 -108t-207 -30.5t-208 30.5t-151 108t-90.5 207.5t-30.5 330zM384 620q0 -247 59.5 -353.5t201.5 -106.5q141 0 200.5 106.5t59.5 353.5q0 135 -12 227.5 t-42.5 149.5t-81 82.5t-124.5 25.5q-77 0 -127 -25.5t-80.5 -82.5t-42 -148.5t-11.5 -228.5z" />
<glyph unicode="p" horiz-adv-x="1261" d="M203 -432v1697h175l21 -109q122 127 299 127q221 0 310 -143.5t89 -425.5q0 -208 -28 -348t-90.5 -226.5t-165 -122t-254.5 -35.5q-45 0 -78.5 2.5t-61.5 7.5v-424h-216zM419 176q29 -6 69 -8.5t96 -2.5q91 0 147.5 32t89.5 97t45.5 163.5t12.5 228.5q0 120 -12.5 200 t-38 128t-67.5 67t-103 19q-54 0 -98 -20t-76 -52t-48.5 -70.5t-16.5 -73.5v-708z" />
<glyph unicode="q" horiz-adv-x="1274" d="M165 577q0 186 32 320t99 220.5t170 126t250 39.5q136 0 212 -10.5t144 -20.5v-1684h-215v518q-56 -48 -125 -76t-155 -28q-119 0 -199 37t-127.5 111.5t-66.5 186.5t-19 260zM384 551q0 -114 13 -189t42 -118.5t73 -61t106 -17.5q58 0 103.5 20t75 52t45 69t15.5 72v711 q-30 6 -69.5 8.5t-98.5 2.5q-91 0 -149 -36t-93 -106.5t-49 -173.5t-14 -233z" />
<glyph unicode="r" horiz-adv-x="854" d="M203 0v1265h175l16 -129q45 64 107.5 105.5t156.5 41.5q86 0 132 -13v-226q-32 8 -73 15.5t-77 7.5q-62 0 -104.5 -25t-69.5 -66t-37 -93t-10 -103v-780h-216z" />
<glyph unicode="s" horiz-adv-x="1016" d="M152 900q0 104 32 176t89 118t136 67.5t168 21.5q99 0 166 -17t103 -28v-184q-63 16 -125.5 31t-164.5 15q-58 0 -94 -16.5t-56 -43t-26.5 -59.5t-6.5 -68q0 -138 160 -165q198 -33 277 -125.5t79 -254.5q0 -107 -29 -180.5t-85 -120t-134.5 -66t-175.5 -19.5 q-109 0 -184.5 14t-118.5 27v185q49 -10 140.5 -25t179.5 -15q99 0 141.5 59.5t42.5 126.5q0 93 -33.5 136t-126.5 59q-195 35 -274.5 122.5t-79.5 228.5z" />
<glyph unicode="t" horiz-adv-x="811" d="M64 1075v190h162v303h216v-303h292v-190h-292v-772q0 -18 5 -42t19 -45t39 -36t64 -15q56 0 96.5 8t68.5 15v-175q-23 -8 -84 -19.5t-131 -11.5q-155 0 -224 95.5t-69 239.5v758h-162z" />
<glyph unicode="u" horiz-adv-x="1240" d="M188 439v826h216v-850q0 -61 7.5 -107.5t27 -78t54.5 -48t93 -16.5q54 0 96 20t74 50.5t49.5 66.5t20.5 71v892h213v-1265h-176l-19 104q-54 -61 -124 -91.5t-166 -30.5q-104 0 -174.5 28t-113 85t-60.5 142t-18 202z" />
<glyph unicode="v" horiz-adv-x="1168" d="M88 1265h232l272 -1087l265 1087h223l-340 -1265h-311z" />
<glyph unicode="w" horiz-adv-x="1540" d="M152 1265h224l95 -914l227 610h176l213 -610l95 914h208l-152 -1265h-224l-237 666l-253 -666h-217z" />
<glyph unicode="x" horiz-adv-x="1173" d="M101 0l367 653l-338 612h248l219 -419l221 419h234l-341 -602l376 -663h-254l-241 468l-254 -468h-237z" />
<glyph unicode="y" horiz-adv-x="1171" d="M88 1265h234l293 -1044l248 1044h221l-368 -1377q-20 -74 -43 -134.5t-58 -104t-85 -67.5t-128 -24q-41 0 -81.5 5t-61.5 8v187q26 -5 59 -8.5t71 -3.5q71 0 101 116l40 138h-50z" />
<glyph unicode="z" horiz-adv-x="1019" d="M114 0v203l549 875h-498v187h727v-226l-546 -853h522v-186h-754z" />
<glyph unicode="{" horiz-adv-x="821" d="M88 745v279q36 0 71.5 8.5t66 32.5t48.5 70.5t18 126.5v503q0 171 63.5 247t213.5 76q24 0 59 -4.5t53 -9.5v-173q-10 2 -31.5 4.5t-45.5 2.5q-58 0 -86 -23t-28 -83v-615q0 -74 -25.5 -128.5t-63.5 -91.5t-85 -57.5t-90 -25.5q43 -5 90 -25.5t85 -56t63.5 -90 t25.5 -128.5v-616q0 -59 28 -82.5t86 -23.5q24 0 45.5 2.5t31.5 5.5v-173q-18 -5 -52.5 -9.5t-59.5 -4.5q-152 0 -214.5 76t-62.5 246v503q0 80 -18 126.5t-48.5 70.5t-67 32t-70.5 8z" />
<glyph unicode="|" horiz-adv-x="731" d="M266 -280v2328h202v-2328h-202z" />
<glyph unicode="}" horiz-adv-x="821" d="M138 -130q13 -3 33 -5.5t47 -2.5q59 0 85.5 23.5t26.5 82.5v616q0 74 25.5 128.5t65 90t86.5 56t90 25.5q-43 5 -90 25.5t-86.5 57.5t-65 91.5t-25.5 128.5v615q0 58 -26.5 82t-85.5 24q-26 0 -46 -2.5t-34 -4.5v173q21 5 56 9.5t60 4.5q152 0 214 -76t62 -247v-503 q0 -79 18.5 -126t47.5 -71t65.5 -32.5t70.5 -8.5v-279q-35 0 -71 -8t-65 -32t-47.5 -70t-18.5 -127v-503q0 -170 -63 -246t-213 -76q-24 0 -59 4t-57 10v173z" />
<glyph unicode="~" horiz-adv-x="1288" d="M216 673v198q86 53 144.5 67.5t113.5 14.5q51 0 96 -15.5t89 -33t87.5 -34t91.5 -16.5q69 0 126.5 26.5t110.5 64.5v-197q-58 -38 -123 -60t-134 -22q-54 0 -98 16t-86 33t-86.5 33t-97.5 16q-66 0 -123.5 -26.5t-110.5 -64.5z" />
<glyph unicode="&#xa1;" horiz-adv-x="630" d="M188 1011v254h254v-254h-254zM211 -506v1243h215v-1243h-215z" />
<glyph unicode="&#xa2;" horiz-adv-x="1186" d="M251 655q0 303 84 446.5t264 171.5v244h202v-244q45 -5 89.5 -14.5t77.5 -18.5v-186q-68 16 -132 25.5t-160 9.5q-56 0 -94.5 -22.5t-62.5 -78.5t-36 -149.5t-12 -234.5t14.5 -227.5t40 -131.5t64 -60t86.5 -15q101 0 169 12.5t123 25.5v-187q-37 -13 -79.5 -21 t-87.5 -13v-267h-202v264q-85 8 -150 42.5t-109.5 109.5t-66.5 201t-22 318z" />
<glyph unicode="&#xa3;" horiz-adv-x="1186" d="M168 0v183h175v678h-175v183h175v143q0 186 25.5 303.5t81.5 184t141 90.5t205 24q45 0 113.5 -6.5t129.5 -17.5v-189q-26 5 -60 9.5t-66 7t-58.5 4t-42.5 1.5q-74 0 -122 -14t-76 -55t-39 -119.5t-11 -205.5v-160h323v-183h-323v-678h501v-183h-897z" />
<glyph unicode="&#xa4;" horiz-adv-x="1439" d="M79 261l160 160q-74 135 -74 338q0 200 74 336l-160 162l145 141l149 -149q144 104 349 103q202 0 343 -103l152 149l140 -141l-158 -162q37 -67 56.5 -150.5t19.5 -185.5q0 -101 -20 -186t-56 -152l158 -160l-140 -141l-152 149q-69 -53 -157 -78.5t-186 -25.5 q-211 0 -349 104l-149 -149zM384 759q0 -208 96.5 -313t241.5 -105q144 0 238 105t94 313t-94 312.5t-238 104.5q-145 0 -241.5 -105t-96.5 -312z" />
<glyph unicode="&#xa5;" horiz-adv-x="1186" d="M51 1771h241l310 -691l305 691h229l-425 -910h325v-190h-330v-191h330v-190h-330v-290h-226v290h-330v190h330v191h-330v190h321z" />
<glyph unicode="&#xa6;" horiz-adv-x="731" d="M266 -280v910h202v-910h-202zM266 1136v912h202v-912h-202z" />
<glyph unicode="&#xa7;" horiz-adv-x="1186" d="M211 879q0 101 43.5 168.5t113.5 113.5q-56 38 -84 106.5t-28 149.5q0 104 32 174t89 114.5t136 64t168 19.5q99 0 165.5 -13t103.5 -24v-187q-61 18 -124.5 30.5t-165.5 12.5q-56 0 -93 -17.5t-59.5 -44t-32.5 -58.5t-10 -58q0 -155 163 -181q195 -32 273.5 -128.5 t78.5 -228.5q0 -109 -48 -175.5t-117 -109.5q61 -40 90.5 -111.5t29.5 -144.5q0 -101 -33.5 -171.5t-90.5 -114.5t-134.5 -63.5t-168.5 -19.5q-98 0 -166 13t-105 26v182q63 -16 126 -27t167 -11q56 0 93 19t60 44.5t32 56t9 53.5q0 74 -38.5 122t-123.5 61 q-198 33 -274.5 129t-76.5 229zM429 889q0 -43 6.5 -76t28 -59.5t61 -45.5t108.5 -29q18 7 41.5 27.5t41.5 47t32 59.5t14 68q0 43 -8.5 76.5t-30.5 60t-65 44.5t-115 33q-48 -16 -81 -76.5t-33 -129.5z" />
<glyph unicode="&#xa8;" horiz-adv-x="897" d="M88 1504v203h215v-203h-215zM594 1504v203h216v-203h-216z" />
<glyph unicode="&#xa9;" horiz-adv-x="2022" d="M216 884q0 211 45.5 378.5t142 284.5t250 179.5t370.5 62.5q216 0 367 -62.5t242.5 -181t133 -286t41.5 -375.5q0 -211 -41.5 -377t-134.5 -283t-242.5 -179.5t-365.5 -62.5q-215 0 -369.5 61t-251 176.5t-142 283.5t-45.5 381zM410 884q0 -168 27.5 -302.5t98.5 -230 t189.5 -146t298.5 -50.5q178 0 293.5 52t181.5 146t90 228.5t24 302.5t-24 303.5t-90 230t-180.5 146.5t-294.5 52t-298.5 -51t-189.5 -145t-98.5 -230t-27.5 -306zM737 900q0 154 20 247t60 145t99 69.5t136 17.5q13 0 34.5 -2.5t41.5 -5t37 -6.5t25 -8v-119 q-75 13 -156 14q-38 0 -66 -10t-47 -45.5t-28 -107.5t-9 -200q0 -130 9 -204.5t28 -110.5t48 -45.5t67 -9.5q43 0 85.5 4.5t68.5 9.5v-121q-21 -5 -69.5 -13t-84.5 -8q-74 0 -130.5 21.5t-93.5 77.5t-56 154t-19 256z" />
<glyph unicode="&#xaa;" horiz-adv-x="998" d="M152 1092q0 155 89 240t249 85h135v95q0 53 -29 87.5t-98 34.5q-82 0 -144 -9t-130 -30v148q53 19 118 30t138 11q186 0 253.5 -71.5t67.5 -236.5v-467q0 -61 83 -61v-122h-56q-26 0 -74 14t-75 67q-72 -91 -245 -89q-53 0 -103.5 10t-90.5 39.5t-64 84t-24 140.5zM170 0 v188h633v-188h-633zM330 1105q0 -71 34 -104t110 -33q49 0 79.5 15t46 35.5t20.5 43t5 35.5v178h-145q-61 0 -105.5 -38t-44.5 -132z" />
<glyph unicode="&#xab;" horiz-adv-x="1176" d="M188 757l227 523h165l-156 -523l156 -526h-165zM594 757l226 523h165l-157 -523l157 -526h-165z" />
<glyph unicode="&#xac;" horiz-adv-x="1453" d="M176 696v188h1102v-615h-216v427h-886z" />
<glyph unicode="&#xad;" horiz-adv-x="1250" d="M216 696v188h820v-188h-820z" />
<glyph unicode="&#xae;" horiz-adv-x="2022" d="M216 884q0 211 45.5 378.5t142 284.5t250 179.5t370.5 62.5q216 0 367 -62.5t242.5 -181t133 -286t41.5 -375.5q0 -211 -41.5 -377t-134.5 -283t-242.5 -179.5t-365.5 -62.5q-215 0 -369.5 61t-251 176.5t-142 283.5t-45.5 381zM410 884q0 -168 27.5 -302.5t98.5 -230 t189.5 -146t298.5 -50.5q178 0 293.5 52t181.5 146t90 228.5t24 302.5t-24 303.5t-90 230t-180.5 146.5t-294.5 52t-298.5 -51t-189.5 -145t-98.5 -230t-27.5 -306zM783 402v975q32 0 69 2q32 3 73 4t86 1q160 0 218.5 -78.5t58.5 -205.5q0 -107 -33 -179t-105 -101 l189 -418h-152l-170 396h-95v-396h-139zM922 922h109q26 0 48.5 5t38.5 22t24 51t8 89q0 102 -22.5 140.5t-96.5 38.5q-30 0 -51.5 -1.5t-34.5 -1.5q-15 -3 -23 -3v-340z" />
<glyph unicode="&#xaf;" horiz-adv-x="821" d="M88 1531v176h644v-176h-644z" />
<glyph unicode="&#xb0;" horiz-adv-x="917" d="M74 1392q0 82 21.5 153t67 124t118.5 84t177 31t176 -31t118 -83t67.5 -124t21.5 -154t-21.5 -155t-67.5 -128t-118 -86.5t-176 -31.5t-177 31.5t-118.5 87.5t-67 129.5t-21.5 152.5zM261 1395q0 -43 9.5 -85t32 -76.5t59.5 -57.5t96 -23q58 0 96 23t60 57.5t31.5 76.5 t9.5 85t-9.5 84t-31.5 74.5t-60 53t-96 19.5q-59 0 -96 -19.5t-59.5 -53t-32 -74.5t-9.5 -84z" />
<glyph unicode="&#xb1;" horiz-adv-x="1389" d="M216 0v188h960v-188h-960zM216 696v188h378v402h202v-402h380v-188h-380v-333h-202v333h-378z" />
<glyph unicode="&#xb2;" horiz-adv-x="1034" d="M168 519v179l282 397q43 63 69.5 108.5t39.5 85.5t19 79.5t6 95.5q0 74 -31.5 115.5t-120.5 41.5q-62 0 -125 -9t-107 -20v163q18 3 86 16t146 13q340 0 340 -338q0 -59 -6.5 -105.5t-24 -91.5t-46.5 -96t-72 -117l-247 -355h412v-162h-620z" />
<glyph unicode="&#xb3;" horiz-adv-x="1034" d="M203 533v163q35 -8 105 -19t131 -11q72 0 116 50.5t44 151.5q0 120 -30.5 180t-134.5 60h-144v160h129q58 0 90 20t47.5 50.5t19.5 63.5t4 62q0 99 -37 129.5t-109 30.5q-61 0 -119.5 -10.5t-101.5 -21.5v163q8 3 30.5 6.5t54.5 9t69 9.5t75 4q72 0 131.5 -14.5 t102.5 -52t67 -102.5t24 -169q0 -86 -34.5 -155t-112.5 -98q79 -15 123.5 -93t44.5 -213q0 -107 -23 -179t-66.5 -117t-104.5 -65t-142 -20q-35 0 -76 4t-76.5 7.5t-62 9.5t-34.5 6z" />
<glyph unicode="&#xb4;" horiz-adv-x="765" d="M114 1466l264 342h275l-333 -342h-206z" />
<glyph unicode="&#xb5;" horiz-adv-x="1253" d="M203 -432v1697h216v-887q2 -101 36.5 -157t143.5 -56q51 0 94.5 20t74 50.5t49.5 66.5t19 71v892h216v-1265h-176l-19 104q-54 -61 -124 -91.5t-166 -30.5q-82 0 -148 28v-442h-216z" />
<glyph unicode="&#xb6;" horiz-adv-x="1288" d="M138 1374q0 114 32.5 193t87 127.5t122 71.5t139.5 23q50 0 97 -2.5t82 -8.5q40 -5 74 -7v-171q-53 11 -98.5 14.5t-81.5 3.5q-142 0 -202 -57t-60 -192q0 -120 36 -185.5t148 -65.5h258v-1118h-210v945h-62q-66 0 -131.5 17.5t-115.5 63.5t-82.5 130t-32.5 218zM910 0 v1771h203v-1771h-203z" />
<glyph unicode="&#xb7;" horiz-adv-x="579" d="M165 658v252h254v-252h-254z" />
<glyph unicode="&#xb8;" horiz-adv-x="763" d="M168 -330q35 -8 70.5 -12t64.5 -4q53 0 78.5 15.5t25.5 61.5q0 38 -39.5 58t-164.5 20l51 316h165l-30 -194q114 -13 162 -61t48 -147q0 -119 -74.5 -174t-196.5 -55q-46 0 -83 5.5t-77 12.5v158z" />
<glyph unicode="&#xb9;" horiz-adv-x="1034" d="M218 1494v180l221 97h211v-1087h183v-165h-596v165h223v908z" />
<glyph unicode="&#xba;" horiz-adv-x="1050" d="M165 1321q0 242 86.5 355t276.5 113q186 0 272.5 -113t86.5 -355q0 -150 -23 -248t-69.5 -157t-113 -81.5t-153.5 -22.5q-89 0 -157 22.5t-114 81.5t-69 157t-23 248zM173 0v188h698v-188h-698zM346 1286q0 -86 6.5 -147t26.5 -101t54.5 -60t94.5 -20q114 0 146 80 t32 248q0 82 -7 149t-25.5 112t-53 70.5t-92.5 25.5q-59 0 -94 -25.5t-55 -70.5t-26.5 -111.5t-6.5 -149.5z" />
<glyph unicode="&#xbb;" horiz-adv-x="1176" d="M188 231l160 526l-160 523h168l224 -523l-224 -526h-168zM594 231l160 526l-160 523h168l223 -523l-223 -526h-168z" />
<glyph unicode="&#xbc;" horiz-adv-x="2211" d="M191 1494v180l224 97h210v-1087h182v-165h-594v165h221v908zM623 -254l810 2302h201l-808 -2302h-203zM1326 295v187l186 770h175l-185 -794h194l19 362h170v-362h125v-163h-125v-295h-189v295h-370z" />
<glyph unicode="&#xbd;" horiz-adv-x="2211" d="M191 1494v180l224 97h210v-1087h182v-165h-594v165h221v908zM633 -254l805 2302h208l-810 -2302h-203zM1438 0v178l282 399q43 64 69.5 108t39.5 84.5t18 80t5 95.5q0 74 -30.5 115.5t-119.5 41.5q-61 0 -124.5 -9t-108.5 -18v163q16 0 85.5 13.5t147.5 13.5 q340 0 340 -335q0 -62 -6.5 -108.5t-24 -92t-46.5 -94.5t-72 -116l-250 -354h415v-165h-620z" />
<glyph unicode="&#xbe;" horiz-adv-x="2211" d="M221 533v163q35 -8 105 -19t132 -11q71 0 115.5 50.5t44.5 151.5q0 120 -32 180t-134 60h-143v160h125q59 0 90.5 20t48 50.5t20.5 63.5t4 62q0 99 -36.5 129.5t-108.5 30.5q-61 0 -120.5 -10.5t-102.5 -21.5v163q8 3 32 6.5t55.5 9t69.5 9.5t74 4q72 0 132.5 -14.5 t102.5 -52t65 -102.5t23 -169q0 -86 -34.5 -155t-112.5 -98q79 -15 125 -93t46 -213q0 -107 -22.5 -179t-67 -117t-105.5 -65t-141 -20q-35 0 -76 4t-78 7.5t-64 9.5t-32 6zM594 -254l809 2302h203l-810 -2302h-202zM1308 295v187l186 770h175l-183 -794h194l16 362h171 v-362h127v-163h-127v-295h-187v295h-372z" />
<glyph unicode="&#xbf;" horiz-adv-x="910" d="M88 -101q0 74 5.5 123.5t25 93.5t57 93.5t101.5 123.5l138 162v242h215v-305l-150 -178q-61 -72 -97.5 -117.5t-53.5 -83t-21.5 -77.5t-4.5 -101q0 -122 58 -167.5t153 -45.5q76 0 162 13t147 27v-184q-23 -6 -58.5 -13.5t-73.5 -14t-78.5 -10.5t-74.5 -4 q-104 0 -188 15.5t-141 62.5t-89 129.5t-32 215.5zM394 1011v254h253v-254h-253z" />
<glyph unicode="&#xc0;" horiz-adv-x="1314" d="M64 0l452 1771h291l445 -1771h-224l-109 447h-523l-109 -447h-223zM333 2127h282l264 -290h-211zM437 636h442l-221 967z" />
<glyph unicode="&#xc1;" horiz-adv-x="1314" d="M64 0l452 1771h291l445 -1771h-224l-109 447h-523l-109 -447h-223zM432 1837l264 290h282l-336 -290h-210zM437 636h442l-221 967z" />
<glyph unicode="&#xc2;" horiz-adv-x="1314" d="M64 0l452 1771h291l445 -1771h-224l-109 447h-523l-109 -447h-223zM261 1845l277 293h234l280 -293h-245l-152 162l-152 -162h-242zM437 636h442l-221 967z" />
<glyph unicode="&#xc3;" horiz-adv-x="1314" d="M64 0l452 1771h291l445 -1771h-224l-109 447h-523l-109 -447h-223zM333 1855v187q58 46 112.5 64t105.5 18q46 0 81.5 -15.5t70 -33t66.5 -33t69 -15.5q69 0 112 22t91 67v-183q-48 -48 -100 -67t-115 -19q-49 0 -84.5 16.5t-67.5 34t-65.5 33t-72.5 15.5 q-67 0 -115 -26.5t-88 -64.5zM437 636h442l-221 967z" />
<glyph unicode="&#xc4;" horiz-adv-x="1314" d="M64 0l452 1771h291l445 -1771h-224l-109 447h-523l-109 -447h-223zM295 1859v201h216v-201h-216zM437 636h442l-221 967zM801 1859v201h200l16 -201h-216z" />
<glyph unicode="&#xc5;" horiz-adv-x="1314" d="M64 0l436 1704q-40 35 -59.5 86.5t-19.5 112.5q0 112 62.5 185.5t174.5 73.5q114 0 178 -72t64 -187q0 -119 -77 -196l429 -1707h-224l-109 447h-520l-112 -447h-223zM439 636h440l-221 967zM564 1906q0 -43 19 -82.5t75 -39.5q61 0 78.5 38t17.5 84q0 50 -20 88t-76 38 t-75 -40.5t-19 -85.5z" />
<glyph unicode="&#xc6;" horiz-adv-x="1892" d="M64 0l604 1771h1022v-184h-676l70 -581h593v-183h-572l77 -640h559v-183h-756l-50 447h-503l-145 -447h-223zM493 636h420l-103 951z" />
<glyph unicode="&#xc7;" horiz-adv-x="1120" d="M165 913q0 279 39.5 451.5t115.5 266.5t187 126t250 32q61 0 128.5 -12t120.5 -25v-187q-61 16 -141 24.5t-154 8.5q-69 0 -128 -24t-102.5 -99t-67.5 -213.5t-24 -367.5q0 -239 25 -381.5t69.5 -218.5t103 -98.5t127.5 -22.5q76 0 160 12.5t132 25.5v-188 q-21 -5 -52.5 -11.5t-70.5 -13t-77.5 -11.5t-71.5 -5l-5 -51q115 -13 161.5 -61t46.5 -147q0 -119 -73.5 -174t-197.5 -55q-46 0 -83 5.5t-77 12.5v158q35 -8 70.5 -12t65.5 -4q54 0 78.5 15.5t24.5 61.5q0 38 -39.5 58t-164.5 20l31 188q-94 19 -169 76t-128.5 163.5 t-81.5 271.5t-28 405z" />
<glyph unicode="&#xc8;" horiz-adv-x="1194" d="M216 0v1771h828v-184h-610v-581h549v-183h-549v-640h610v-183h-828zM282 2127h282l264 -290h-210z" />
<glyph unicode="&#xc9;" horiz-adv-x="1194" d="M216 0v1771h828v-184h-610v-581h549v-183h-549v-640h610v-183h-828zM460 1837l264 290h280l-333 -290h-211z" />
<glyph unicode="&#xca;" horiz-adv-x="1194" d="M216 0v1771h828v-184h-610v-581h549v-183h-549v-640h610v-183h-828zM234 1845l280 293h231l283 -293h-245l-153 162l-150 -162h-246z" />
<glyph unicode="&#xcb;" horiz-adv-x="1194" d="M216 0v1771h828v-184h-610v-581h549v-183h-549v-640h610v-183h-828zM274 1859v201h214v-201h-214zM780 1859v201h213v-201h-213z" />
<glyph unicode="&#xcc;" horiz-adv-x="800" d="M96 2127h282l262 -290h-211zM114 0v183h176v1404h-176v184h572v-184h-175v-1404h175v-183h-572z" />
<glyph unicode="&#xcd;" horiz-adv-x="800" d="M114 0v183h176v1404h-176v184h572v-184h-175v-1404h175v-183h-572zM155 1837l264 290h279l-333 -290h-210z" />
<glyph unicode="&#xce;" horiz-adv-x="800" d="M5 1845l277 293h234l280 -293h-245l-152 162l-152 -162h-242zM114 0v183h176v1404h-176v184h572v-184h-175v-1404h175v-183h-572z" />
<glyph unicode="&#xcf;" horiz-adv-x="800" d="M40 1859v201h216v-201h-216zM114 0v183h176v1404h-176v184h572v-184h-175v-1404h175v-183h-572zM546 1859v201h216v-201h-216z" />
<glyph unicode="&#xd0;" horiz-adv-x="1405" d="M64 823v188h175v760q74 2 152 7q67 6 143 8.5t142 2.5q133 0 238 -32t177.5 -126t110.5 -266.5t38 -451.5q0 -283 -35.5 -463.5t-104.5 -284.5t-168 -143.5t-226 -39.5q-74 0 -156 1t-151 7q-82 5 -160 10v823h-175zM460 176q46 -3 94 -6q40 -2 87.5 -2h87.5 q59 0 111 35.5t92 119.5t62.5 223.5t22.5 347.5q0 227 -22.5 366.5t-62.5 215.5t-92 101.5t-108 25.5q-38 0 -84 -1.5t-89 -3.5q-48 -3 -99 -6v-581h285v-188h-285v-647z" />
<glyph unicode="&#xd1;" horiz-adv-x="1383" d="M216 0v1771h359l388 -1585v1585h206v-1771h-362l-386 1585v-1585h-205zM333 1855v187q58 46 112.5 64t105.5 18q46 0 81.5 -15.5t70 -33t66.5 -33t69 -15.5q69 0 112 22t91 67v-183q-48 -48 -100 -67t-115 -19q-49 0 -84.5 16.5t-67.5 34t-65.5 33t-72.5 15.5 q-67 0 -115 -26.5t-88 -64.5z" />
<glyph unicode="&#xd2;" horiz-adv-x="1436" d="M165 905q0 223 28 388.5t91.5 276t170.5 165t264 54.5t263.5 -54.5t170.5 -165t92 -276t28 -388.5q0 -232 -28 -406t-92 -288.5t-170.5 -171.5t-263.5 -57t-264 57t-170.5 171.5t-91.5 288.5t-28 406zM356 2127h280l264 -290h-211zM389 892q0 -206 20 -344t59.5 -222 t102 -121t148.5 -37t147 37t100.5 121t59.5 222t20 344q0 208 -20 345t-59.5 218.5t-101.5 114.5t-146 33q-86 0 -148.5 -33t-102 -114.5t-59.5 -218.5t-20 -345z" />
<glyph unicode="&#xd3;" horiz-adv-x="1436" d="M165 905q0 223 28 388.5t91.5 276t170.5 165t264 54.5t263.5 -54.5t170.5 -165t92 -276t28 -388.5q0 -232 -28 -406t-92 -288.5t-170.5 -171.5t-263.5 -57t-264 57t-170.5 171.5t-91.5 288.5t-28 406zM389 892q0 -206 20 -344t59.5 -222t102 -121t148.5 -37t147 37 t100.5 121t59.5 222t20 344q0 208 -20 345t-59.5 218.5t-101.5 114.5t-146 33q-86 0 -148.5 -33t-102 -114.5t-59.5 -218.5t-20 -345zM546 1837l264 290h279l-332 -290h-211z" />
<glyph unicode="&#xd4;" horiz-adv-x="1436" d="M165 905q0 223 28 388.5t91.5 276t170.5 165t264 54.5t263.5 -54.5t170.5 -165t92 -276t28 -388.5q0 -232 -28 -406t-92 -288.5t-170.5 -171.5t-263.5 -57t-264 57t-170.5 171.5t-91.5 288.5t-28 406zM325 1845l277 293h231l282 -293h-244l-152 162l-152 -162h-242z M389 892q0 -206 20 -344t59.5 -222t102 -121t148.5 -37t147 37t100.5 121t59.5 222t20 344q0 208 -20 345t-59.5 218.5t-101.5 114.5t-146 33q-86 0 -148.5 -33t-102 -114.5t-59.5 -218.5t-20 -345z" />
<glyph unicode="&#xd5;" horiz-adv-x="1436" d="M165 905q0 223 28 388.5t91.5 276t170.5 165t264 54.5t263.5 -54.5t170.5 -165t92 -276t28 -388.5q0 -232 -28 -406t-92 -288.5t-170.5 -171.5t-263.5 -57t-264 57t-170.5 171.5t-91.5 288.5t-28 406zM376 1855v187q56 46 111.5 64t104.5 18q45 0 82 -15.5t70 -33 t66.5 -33t70.5 -15.5q67 0 110 22t93 67v-183q-50 -48 -102 -67t-116 -19q-48 0 -84.5 16.5t-68.5 34t-63.5 33t-72.5 15.5q-69 0 -115.5 -26.5t-85.5 -64.5zM389 892q0 -206 20 -344t59.5 -222t102 -121t148.5 -37t147 37t100.5 121t59.5 222t20 344q0 208 -20 345 t-59.5 218.5t-101.5 114.5t-146 33q-86 0 -148.5 -33t-102 -114.5t-59.5 -218.5t-20 -345z" />
<glyph unicode="&#xd6;" horiz-adv-x="1436" d="M165 905q0 223 28 388.5t91.5 276t170.5 165t264 54.5t263.5 -54.5t170.5 -165t92 -276t28 -388.5q0 -232 -28 -406t-92 -288.5t-170.5 -171.5t-263.5 -57t-264 57t-170.5 171.5t-91.5 288.5t-28 406zM359 1859v201h216v-201h-216zM389 892q0 -206 20 -344t59.5 -222 t102 -121t148.5 -37t147 37t100.5 121t59.5 222t20 344q0 208 -20 345t-59.5 218.5t-101.5 114.5t-146 33q-86 0 -148.5 -33t-102 -114.5t-59.5 -218.5t-20 -345zM866 1859v201h214v-201h-214z" />
<glyph unicode="&#xd7;" horiz-adv-x="1389" d="M259 488l292 295l-292 297l140 142l297 -292l295 292l143 -142l-296 -297l296 -295l-143 -142l-295 294l-297 -294z" />
<glyph unicode="&#xd8;" horiz-adv-x="1387" d="M165 905q0 223 24 388.5t84 276t161.5 165t257.5 54.5q48 0 91 -4t80 -17l72 231h191l-95 -319q109 -102 150 -293.5t41 -481.5q0 -232 -24 -406t-84 -288.5t-162.5 -171.5t-259.5 -57q-46 0 -87 5t-77 13l-70 -229h-192l97 320q-112 104 -155 306t-43 508zM389 892 q0 -184 11.5 -314.5t41.5 -214.5l365 1222q-23 7 -53 12.5t-62 5.5q-86 0 -142.5 -33t-92.5 -114.5t-52 -218.5t-16 -345zM580 183q50 -15 112 -15q85 0 143.5 37t94.5 121t51 222t15 344q0 180 -10.5 305.5t-37.5 207.5z" />
<glyph unicode="&#xd9;" horiz-adv-x="1402" d="M203 468v1303h221v-1350q0 -132 82.5 -192.5t196.5 -60.5q115 0 197.5 59.5t82.5 193.5v1350h218v-1303q0 -127 -37.5 -220t-102.5 -151.5t-157 -86.5t-201 -28t-201 28t-158.5 86.5t-103.5 151.5t-37 220zM330 2127h282l264 -290h-210z" />
<glyph unicode="&#xda;" horiz-adv-x="1402" d="M203 468v1303h221v-1350q0 -132 82.5 -192.5t196.5 -60.5q115 0 197.5 59.5t82.5 193.5v1350h218v-1303q0 -127 -37.5 -220t-102.5 -151.5t-157 -86.5t-201 -28t-201 28t-158.5 86.5t-103.5 151.5t-37 220zM546 1837l264 290h279l-332 -290h-211z" />
<glyph unicode="&#xdb;" horiz-adv-x="1402" d="M203 468v1303h221v-1350q0 -132 82.5 -192.5t196.5 -60.5q115 0 197.5 59.5t82.5 193.5v1350h218v-1303q0 -127 -37.5 -220t-102.5 -151.5t-157 -86.5t-201 -28t-201 28t-158.5 86.5t-103.5 151.5t-37 220zM312 1845l277 293h234l279 -293h-245l-151 162l-152 -162h-242z " />
<glyph unicode="&#xdc;" horiz-adv-x="1402" d="M203 468v1303h221v-1350q0 -132 82.5 -192.5t196.5 -60.5q115 0 197.5 59.5t82.5 193.5v1350h218v-1303q0 -127 -37.5 -220t-102.5 -151.5t-157 -86.5t-201 -28t-201 28t-158.5 86.5t-103.5 151.5t-37 220zM346 1859v201h216v-201h-216zM852 1859v201h215v-201h-215z" />
<glyph unicode="&#xdd;" horiz-adv-x="1290" d="M51 1771h241l361 -735l358 735h229l-483 -948v-823h-227v823zM495 1837l264 290h280l-333 -290h-211z" />
<glyph unicode="&#xde;" horiz-adv-x="1288" d="M216 0v1771h218v-331q48 3 100 7t108 4q144 0 240 -39.5t153 -110.5t79 -169t22 -216q0 -289 -110 -424.5t-379 -135.5h-213v-356h-218zM434 541h239q54 0 98 17t76 58.5t49 109t17 171.5q0 191 -51.5 282t-188.5 91q-53 0 -96.5 -2.5t-76.5 -5.5q-37 -5 -66 -8v-713z " />
<glyph unicode="&#xdf;" horiz-adv-x="1311" d="M203 0v1347q0 213 115.5 327.5t314.5 114.5q107 0 184 -29.5t129 -80t77.5 -119.5t25.5 -152q0 -46 -2.5 -83t-7.5 -71.5t-12.5 -72.5t-17.5 -86q-152 0 -209.5 -40.5t-57.5 -114.5q0 -38 20.5 -67t68.5 -47q61 -26 120.5 -61.5t106.5 -86t75 -119.5t28 -165 q0 -114 -29.5 -193t-84 -128.5t-134.5 -70t-181 -20.5q-13 0 -36 1t-49.5 5t-52 8t-43.5 9v186q43 -13 94 -19.5t95 -6.5q106 0 150.5 65t44.5 151q0 104 -41.5 160t-148.5 106q-109 51 -156.5 118.5t-47.5 187.5q0 133 81 206t216 95q14 38 19.5 76.5t5.5 91.5 q0 69 -54.5 126.5t-178.5 57.5q-96 0 -153.5 -57.5t-57.5 -182.5v-1366h-216z" />
<glyph unicode="&#xe0;" horiz-adv-x="1215" d="M125 356q0 208 120 316t332 108h200v136q0 80 -48 132t-143 52q-109 0 -190 -12.5t-175 -41.5v186q69 21 158 36t183 15q122 0 204.5 -25.5t132 -76t71 -130t21.5 -185.5v-607q0 -38 25 -60.5t86 -22.5v-176h-74q-18 0 -45 5t-55 19t-52 38t-40 63q-46 -69 -126 -106 t-207 -37q-69 0 -137 14t-121.5 56t-86.5 114.5t-33 189.5zM274 1808h275l263 -342h-205zM346 373q0 -119 53 -163.5t155 -44.5q66 0 109 20t68.5 48t35.5 58.5t10 49.5v266h-213q-82 0 -150 -56t-68 -178z" />
<glyph unicode="&#xe1;" horiz-adv-x="1215" d="M125 356q0 208 120 316t332 108h200v136q0 80 -48 132t-143 52q-109 0 -190 -12.5t-175 -41.5v186q69 21 158 36t183 15q122 0 204.5 -25.5t132 -76t71 -130t21.5 -185.5v-607q0 -38 25 -60.5t86 -22.5v-176h-74q-18 0 -45 5t-55 19t-52 38t-40 63q-46 -69 -126 -106 t-207 -37q-69 0 -137 14t-121.5 56t-86.5 114.5t-33 189.5zM346 373q0 -119 53 -163.5t155 -44.5q66 0 109 20t68.5 48t35.5 58.5t10 49.5v266h-213q-82 0 -150 -56t-68 -178zM460 1466l264 342h274l-332 -342h-206z" />
<glyph unicode="&#xe2;" horiz-adv-x="1215" d="M125 356q0 208 120 316t332 108h200v136q0 80 -48 132t-143 52q-109 0 -190 -12.5t-175 -41.5v186q69 21 158 36t183 15q122 0 204.5 -25.5t132 -76t71 -130t21.5 -185.5v-607q0 -38 25 -60.5t86 -22.5v-176h-74q-18 0 -45 5t-55 19t-52 38t-40 63q-46 -69 -126 -106 t-207 -37q-69 0 -137 14t-121.5 56t-86.5 114.5t-33 189.5zM226 1466l282 342h224l285 -342h-245l-152 214l-152 -214h-242zM346 373q0 -119 53 -163.5t155 -44.5q66 0 109 20t68.5 48t35.5 58.5t10 49.5v266h-213q-82 0 -150 -56t-68 -178z" />
<glyph unicode="&#xe3;" horiz-adv-x="1215" d="M125 356q0 208 120 316t332 108h200v136q0 80 -48 132t-143 52q-109 0 -190 -12.5t-175 -41.5v186q69 21 158 36t183 15q122 0 204.5 -25.5t132 -76t71 -130t21.5 -185.5v-607q0 -38 25 -60.5t86 -22.5v-176h-74q-18 0 -45 5t-55 19t-52 38t-40 63q-46 -69 -126 -106 t-207 -37q-69 0 -137 14t-121.5 56t-86.5 114.5t-33 189.5zM256 1502v185q56 46 112 65t106 19q43 0 80.5 -16.5t70.5 -33.5t66 -33t71 -16q66 0 108.5 22.5t92.5 68.5v-185q-50 -48 -100.5 -66t-117.5 -18q-48 0 -82.5 16t-66.5 33t-65 33t-73 16q-67 0 -115 -26.5 t-87 -63.5zM346 373q0 -119 53 -163.5t155 -44.5q66 0 109 20t68.5 48t35.5 58.5t10 49.5v266h-213q-82 0 -150 -56t-68 -178z" />
<glyph unicode="&#xe4;" horiz-adv-x="1215" d="M125 356q0 208 120 316t332 108h200v136q0 80 -48 132t-143 52q-109 0 -190 -12.5t-175 -41.5v186q69 21 158 36t183 15q122 0 204.5 -25.5t132 -76t71 -130t21.5 -185.5v-607q0 -38 25 -60.5t86 -22.5v-176h-74q-18 0 -45 5t-55 19t-52 38t-40 63q-46 -69 -126 -106 t-207 -37q-69 0 -137 14t-121.5 56t-86.5 114.5t-33 189.5zM244 1504v203h216v-203h-216zM346 373q0 -119 53 -163.5t155 -44.5q66 0 109 20t68.5 48t35.5 58.5t10 49.5v266h-213q-82 0 -150 -56t-68 -178zM751 1504v203h215v-203h-215z" />
<glyph unicode="&#xe5;" horiz-adv-x="1215" d="M125 356q0 208 120 316t332 108h200v136q0 80 -48 132t-143 52q-109 0 -190 -12.5t-175 -41.5v186q69 21 158 36t183 15q122 0 204.5 -25.5t132 -76t71 -130t21.5 -185.5v-607q0 -38 25 -60.5t86 -22.5v-176h-74q-18 0 -45 5t-55 19t-52 38t-40 63q-46 -69 -126 -106 t-207 -37q-69 0 -137 14t-121.5 56t-86.5 114.5t-33 189.5zM341 1632q0 111 63.5 184.5t175.5 73.5q114 0 178.5 -72t64.5 -186q0 -112 -65.5 -185t-177.5 -73t-175.5 74t-63.5 184zM346 373q0 -119 53 -163.5t155 -44.5q66 0 109 20t68.5 48t35.5 58.5t10 49.5v266h-213 q-82 0 -150 -56t-68 -178zM485 1634q0 -43 19.5 -84t75.5 -41q61 0 78.5 38.5t17.5 86.5t-20 86t-76 38t-75.5 -39t-19.5 -85z" />
<glyph unicode="&#xe6;" horiz-adv-x="1794" d="M125 356q0 200 120 299t332 99h200v162q0 77 -48 130.5t-143 53.5q-109 0 -190 -15t-175 -44v186q69 21 158 38.5t183 17.5q135 0 220.5 -33t130.5 -102q111 135 325 135q218 0 311.5 -142.5t93.5 -395.5v-165h-658q0 -133 16 -214t46.5 -126t70.5 -60t88 -15 q104 0 194.5 16.5t143.5 29.5v-188q-61 -15 -152 -28t-160 -13q-132 0 -225.5 37t-149.5 146q-46 -86 -128 -134.5t-226 -48.5q-69 0 -137 14t-121.5 56t-86.5 114.5t-33 189.5zM346 373q0 -119 53 -163.5t155 -44.5q61 0 104 19t68 44.5t37 54.5t14 50v247h-213 q-40 0 -79.5 -10.5t-70 -34.5t-49.5 -63.5t-19 -98.5zM988 754h447v42q0 144 -45.5 225t-157.5 81q-58 0 -101.5 -17.5t-73 -57t-47 -106.5t-22.5 -167z" />
<glyph unicode="&#xe7;" horiz-adv-x="1021" d="M165 658q0 170 25.5 288.5t80 193t137 109t196.5 34.5q62 0 143 -13t137 -27v-186q-72 15 -135 25t-160 10q-56 0 -95 -23t-63 -78.5t-35.5 -149t-11.5 -234.5q0 -144 14 -229.5t40.5 -130t64.5 -59.5t86 -15q104 0 171.5 12.5t123.5 25.5v-188q-53 -15 -115.5 -25.5 t-123.5 -15.5l-9 -51q114 -13 162 -61t48 -147q0 -119 -74 -174t-197 -55q-46 0 -83 5.5t-77 12.5v158q35 -8 70.5 -12t65.5 -4q53 0 78.5 15.5t25.5 61.5q0 38 -40 58t-165 20l30 183q-77 11 -136 48t-99 113t-60 198.5t-20 306.5z" />
<glyph unicode="&#xe8;" horiz-adv-x="1184" d="M165 630q0 352 115.5 502.5t344.5 150.5q219 0 314 -142.5t95 -395.5v-189h-656q3 -124 18.5 -201.5t43.5 -118.5t67 -56t87 -15q104 0 193 13t148 27v-182q-33 -7 -72.5 -15t-82.5 -14.5t-84 -9t-76 -2.5q-109 0 -194 22t-143.5 91.5t-88 197.5t-29.5 337zM269 1808h274 l264 -342h-205zM381 729h442v67q0 144 -45.5 225t-157.5 81q-61 0 -103.5 -17.5t-72 -59.5t-44 -114.5t-19.5 -181.5z" />
<glyph unicode="&#xe9;" horiz-adv-x="1184" d="M165 630q0 352 115.5 502.5t344.5 150.5q219 0 314 -142.5t95 -395.5v-189h-656q3 -124 18.5 -201.5t43.5 -118.5t67 -56t87 -15q104 0 193 13t148 27v-182q-33 -7 -72.5 -15t-82.5 -14.5t-84 -9t-76 -2.5q-109 0 -194 22t-143.5 91.5t-88 197.5t-29.5 337zM381 729h442 v67q0 144 -45.5 225t-157.5 81q-61 0 -103.5 -17.5t-72 -59.5t-44 -114.5t-19.5 -181.5zM460 1466l264 342h274l-332 -342h-206z" />
<glyph unicode="&#xea;" horiz-adv-x="1184" d="M165 630q0 352 115.5 502.5t344.5 150.5q219 0 314 -142.5t95 -395.5v-189h-656q3 -124 18.5 -201.5t43.5 -118.5t67 -56t87 -15q104 0 193 13t148 27v-182q-33 -7 -72.5 -15t-82.5 -14.5t-84 -9t-76 -2.5q-109 0 -194 22t-143.5 91.5t-88 197.5t-29.5 337zM229 1466 l285 342h220l288 -342h-245l-152 214l-151 -214h-245zM381 729h442v67q0 144 -45.5 225t-157.5 81q-61 0 -103.5 -17.5t-72 -59.5t-44 -114.5t-19.5 -181.5z" />
<glyph unicode="&#xeb;" horiz-adv-x="1184" d="M165 630q0 352 115.5 502.5t344.5 150.5q219 0 314 -142.5t95 -395.5v-189h-656q3 -124 18.5 -201.5t43.5 -118.5t67 -56t87 -15q104 0 193 13t148 27v-182q-33 -7 -72.5 -15t-82.5 -14.5t-84 -9t-76 -2.5q-109 0 -194 22t-143.5 91.5t-88 197.5t-29.5 337zM272 1504v203 h213v-203h-213zM381 729h442v67q0 144 -45.5 225t-157.5 81q-61 0 -103.5 -17.5t-72 -59.5t-44 -114.5t-19.5 -181.5zM777 1504v203h214v-203h-214z" />
<glyph unicode="&#xec;" horiz-adv-x="620" d="M-61 1808h264l277 -342h-206zM203 0v1265h216v-1265h-216z" />
<glyph unicode="&#xed;" horiz-adv-x="620" d="M138 1466l264 342h277l-336 -342h-205zM203 0v1265h216v-1265h-216z" />
<glyph unicode="&#xee;" horiz-adv-x="620" d="M-86 1466l284 342h223l285 -342h-246l-151 214l-152 -214h-243zM203 0v1265h216v-1265h-216z" />
<glyph unicode="&#xef;" horiz-adv-x="620" d="M-51 1504v203h216v-203h-216zM203 0v1265h216v-1265h-216zM455 1504v203h216v-203h-216z" />
<glyph unicode="&#xf0;" horiz-adv-x="1271" d="M176 556q0 136 14.5 251t58 196t123.5 126t214 45q94 0 163 -25.5t114 -53.5q-5 104 -17.5 179t-34 130t-52 91t-73.5 57l-82 -147h-208l112 193q-48 5 -102.5 6.5t-118.5 6.5v178q89 -5 169 -9t148 -17l77 132h208l-106 -180q71 -33 128 -86t95 -139.5t58 -210 t20 -294.5q0 -314 -22.5 -509.5t-76 -306.5t-142.5 -149t-220 -38q-97 0 -177.5 29t-141 97t-94.5 177t-34 271zM391 533q0 -178 49.5 -273t195.5 -95q56 0 100 25.5t72 105.5t44 228.5t16 397.5q-26 13 -96.5 41t-167.5 28q-68 0 -110 -32t-64.5 -90.5t-30.5 -143.5 t-8 -192z" />
<glyph unicode="&#xf1;" horiz-adv-x="1280" d="M203 0v1265h175l18 -115q125 133 312 133q216 0 298.5 -109t82.5 -341v-833h-213v861q0 119 -40 179t-165 60q-53 0 -100 -20t-81.5 -52t-52.5 -70.5t-18 -73.5v-884h-216zM338 1502v185q58 46 113 65t105 19q46 0 81.5 -16.5t70 -33.5t67 -33t69.5 -16q69 0 111.5 22.5 t90.5 68.5v-185q-48 -48 -100 -66t-115 -18q-48 0 -84 16t-68 33t-65.5 33t-72.5 16q-67 0 -115 -26.5t-88 -63.5z" />
<glyph unicode="&#xf2;" horiz-adv-x="1288" d="M165 658q0 322 115.5 473.5t364.5 151.5q251 0 366 -151.5t115 -473.5q0 -200 -30.5 -330t-92 -207.5t-151.5 -108t-207 -30.5t-208 30.5t-151 108t-90.5 207.5t-30.5 330zM307 1808h273l264 -342h-204zM384 620q0 -247 59.5 -353.5t201.5 -106.5q141 0 200.5 106.5 t59.5 353.5q0 135 -12 227.5t-42.5 149.5t-81 82.5t-124.5 25.5q-77 0 -127 -25.5t-80.5 -82.5t-42 -148.5t-11.5 -228.5z" />
<glyph unicode="&#xf3;" horiz-adv-x="1288" d="M165 658q0 322 115.5 473.5t364.5 151.5q251 0 366 -151.5t115 -473.5q0 -200 -30.5 -330t-92 -207.5t-151.5 -108t-207 -30.5t-208 30.5t-151 108t-90.5 207.5t-30.5 330zM384 620q0 -247 59.5 -353.5t201.5 -106.5q141 0 200.5 106.5t59.5 353.5q0 135 -12 227.5 t-42.5 149.5t-81 82.5t-124.5 25.5q-77 0 -127 -25.5t-80.5 -82.5t-42 -148.5t-11.5 -228.5zM474 1466l260 342h277l-332 -342h-205z" />
<glyph unicode="&#xf4;" horiz-adv-x="1288" d="M165 658q0 322 115.5 473.5t364.5 151.5q251 0 366 -151.5t115 -473.5q0 -200 -30.5 -330t-92 -207.5t-151.5 -108t-207 -30.5t-208 30.5t-151 108t-90.5 207.5t-30.5 330zM251 1466l282 342h224l284 -342h-245l-151 214l-152 -214h-242zM384 620q0 -247 59.5 -353.5 t201.5 -106.5q141 0 200.5 106.5t59.5 353.5q0 135 -12 227.5t-42.5 149.5t-81 82.5t-124.5 25.5q-77 0 -127 -25.5t-80.5 -82.5t-42 -148.5t-11.5 -228.5z" />
<glyph unicode="&#xf5;" horiz-adv-x="1288" d="M165 658q0 322 115.5 473.5t364.5 151.5q251 0 366 -151.5t115 -473.5q0 -200 -30.5 -330t-92 -207.5t-151.5 -108t-207 -30.5t-208 30.5t-151 108t-90.5 207.5t-30.5 330zM303 1502v185q56 46 112 65t106 19q43 0 81 -16.5t71 -33.5t66 -33t71 -16q66 0 108.5 22.5 t92.5 68.5v-185q-50 -48 -100 -66t-118 -18q-48 0 -82.5 16t-66.5 33t-65 33t-73 16q-67 0 -115 -26.5t-88 -63.5zM384 620q0 -247 59.5 -353.5t201.5 -106.5q141 0 200.5 106.5t59.5 353.5q0 135 -12 227.5t-42.5 149.5t-81 82.5t-124.5 25.5q-77 0 -127 -25.5t-80.5 -82.5 t-42 -148.5t-11.5 -228.5z" />
<glyph unicode="&#xf6;" horiz-adv-x="1288" d="M165 658q0 322 115.5 473.5t364.5 151.5q251 0 366 -151.5t115 -473.5q0 -200 -30.5 -330t-92 -207.5t-151.5 -108t-207 -30.5t-208 30.5t-151 108t-90.5 207.5t-30.5 330zM285 1504v203h215v-203h-215zM384 620q0 -247 59.5 -353.5t201.5 -106.5q141 0 200.5 106.5 t59.5 353.5q0 135 -12 227.5t-42.5 149.5t-81 82.5t-124.5 25.5q-77 0 -127 -25.5t-80.5 -82.5t-42 -148.5t-11.5 -228.5zM790 1504v203h216v-203h-216z" />
<glyph unicode="&#xf7;" horiz-adv-x="1389" d="M216 696v188h960v-188h-960zM569 165v254h254v-254h-254zM569 1164v253h254v-253h-254z" />
<glyph unicode="&#xf8;" horiz-adv-x="1288" d="M165 658q0 322 115.5 473.5t364.5 151.5q30 0 59.5 -2.5t57.5 -7.5l71 218h198l-96 -290q96 -69 143.5 -202t47.5 -341q0 -200 -30.5 -330t-92 -207.5t-151.5 -108t-207 -30.5q-59 0 -115 8l-70 -216h-196l92 282q-96 66 -143.5 208.5t-47.5 393.5zM384 620 q0 -224 48 -335l271 815q-13 2 -28 3.5t-30 1.5q-77 0 -127 -25.5t-80.5 -82.5t-42 -149.5t-11.5 -227.5zM589 162q13 -2 27 -2h29q141 0 200.5 106.5t59.5 353.5q0 244 -44 360z" />
<glyph unicode="&#xf9;" horiz-adv-x="1240" d="M188 439v826h216v-850q0 -61 7.5 -107.5t27 -78t54.5 -48t93 -16.5q54 0 96 20t74 50.5t49.5 66.5t20.5 71v892h213v-1265h-176l-19 104q-54 -61 -124 -91.5t-166 -30.5q-104 0 -174.5 28t-113 85t-60.5 142t-18 202zM277 1808h274l264 -342h-205z" />
<glyph unicode="&#xfa;" horiz-adv-x="1240" d="M188 439v826h216v-850q0 -61 7.5 -107.5t27 -78t54.5 -48t93 -16.5q54 0 96 20t74 50.5t49.5 66.5t20.5 71v892h213v-1265h-176l-19 104q-54 -61 -124 -91.5t-166 -30.5q-104 0 -174.5 28t-113 85t-60.5 142t-18 202zM465 1466l264 342h275l-333 -342h-206z" />
<glyph unicode="&#xfb;" horiz-adv-x="1240" d="M188 439v826h216v-850q0 -61 7.5 -107.5t27 -78t54.5 -48t93 -16.5q54 0 96 20t74 50.5t49.5 66.5t20.5 71v892h213v-1265h-176l-19 104q-54 -61 -124 -91.5t-166 -30.5q-104 0 -174.5 28t-113 85t-60.5 142t-18 202zM226 1466l282 342h224l285 -342h-245l-152 214 l-152 -214h-242z" />
<glyph unicode="&#xfc;" horiz-adv-x="1240" d="M188 439v826h216v-850q0 -61 7.5 -107.5t27 -78t54.5 -48t93 -16.5q54 0 96 20t74 50.5t49.5 66.5t20.5 71v892h213v-1265h-176l-19 104q-54 -61 -124 -91.5t-166 -30.5q-104 0 -174.5 28t-113 85t-60.5 142t-18 202zM259 1504v203h215v-203h-215zM764 1504v203h216v-203 h-216z" />
<glyph unicode="&#xfd;" horiz-adv-x="1171" d="M88 1265h234l293 -1044l248 1044h221l-368 -1377q-20 -74 -43 -134.5t-58 -104t-85 -67.5t-128 -24q-41 0 -81.5 5t-61.5 8v187q26 -5 59 -8.5t71 -3.5q71 0 101 116l40 138h-50zM488 1466l263 342h277l-336 -342h-204z" />
<glyph unicode="&#xfe;" horiz-adv-x="1261" d="M203 -432v2203h216v-600q55 54 124 83t155 29q221 0 310 -143.5t89 -425.5q0 -208 -28 -348t-90.5 -226.5t-165 -122t-254.5 -35.5q-45 0 -78.5 2.5t-61.5 7.5v-424h-216zM419 176q29 -6 69 -8.5t96 -2.5q91 0 147.5 32t89.5 97t45.5 163.5t12.5 228.5q0 120 -12.5 200 t-38 128t-67.5 67t-103 19q-54 0 -98 -20t-76 -52t-48.5 -70.5t-16.5 -73.5v-708z" />
<glyph unicode="&#xff;" horiz-adv-x="1171" d="M88 1265h234l293 -1044l248 1044h221l-368 -1377q-20 -74 -43 -134.5t-58 -104t-85 -67.5t-128 -24q-41 0 -81.5 5t-61.5 8v187q26 -5 59 -8.5t71 -3.5q71 0 101 116l40 138h-50zM226 1504v203h216v-203h-216zM732 1504v203h216v-203h-216z" />
<glyph unicode="&#x131;" horiz-adv-x="620" d="M203 0v1265h216v-1265h-216z" />
<glyph unicode="&#x141;" horiz-adv-x="1062" d="M64 759v202l152 75v735h218v-631l311 148v-201l-311 -150v-746h564v-191h-782v833z" />
<glyph unicode="&#x142;" horiz-adv-x="707" d="M88 759v197l138 90v725h216v-584l152 101v-201l-152 -102v-690q0 -66 17.5 -92.5t68.5 -26.5q21 0 38.5 5t27.5 7v-175q-26 -5 -63.5 -13t-88.5 -8q-38 0 -76 13t-69 47t-51 90t-20 140v564z" />
<glyph unicode="&#x152;" horiz-adv-x="1937" d="M165 905q0 223 24 388.5t84 276t161.5 165t257.5 54.5q37 0 70.5 -6.5t65.5 -11.5h958v-184h-694q58 -99 81 -242.5t28 -338.5h521v-183h-518q-5 -219 -30.5 -377.5t-86.5 -262.5h699v-183h-958q-32 -5 -65.5 -11.5t-70.5 -6.5q-158 0 -258.5 57t-160.5 171.5t-84 288.5 t-24 406zM389 892q0 -206 16 -344t52 -222t93 -121t142 -37t142.5 37t90.5 121t46.5 222t13.5 344q0 208 -13.5 345t-46.5 218.5t-90.5 114.5t-142.5 33q-86 0 -142.5 -33t-92.5 -114.5t-52 -218.5t-16 -345z" />
<glyph unicode="&#x153;" horiz-adv-x="1924" d="M165 658q0 322 115.5 473.5t364.5 151.5q253 0 369 -170q107 170 352 170q219 0 313 -142.5t94 -395.5v-189h-652q2 -124 18.5 -201.5t44.5 -118.5t66 -56t86 -15q104 0 193 16.5t145 29.5v-188q-32 -7 -71.5 -15t-82 -13t-84 -9t-75.5 -4q-122 0 -211.5 30.5 t-145.5 117.5q-59 -79 -149.5 -113.5t-209.5 -34.5q-117 0 -208 30.5t-151 108t-90.5 207.5t-30.5 330zM384 620q0 -247 59.5 -353.5t201.5 -106.5q141 0 200.5 106.5t59.5 353.5q0 135 -12 227.5t-42.5 149.5t-81 82.5t-124.5 25.5q-77 0 -127 -25.5t-80.5 -82.5 t-42 -148.5t-11.5 -228.5zM1123 729h440v67q0 144 -45 225t-157 81q-61 0 -104 -17.5t-71 -61t-43 -115.5t-20 -179z" />
<glyph unicode="&#x160;" horiz-adv-x="1095" d="M147 1299q0 135 37 228.5t102 152t157.5 84t201.5 25.5q63 0 137.5 -12t130.5 -27v-185q-64 16 -145.5 27t-147.5 11q-48 0 -93 -15t-78.5 -48t-54.5 -85t-21 -126q0 -77 8 -128t29.5 -84t58.5 -53t98 -30q91 -19 163.5 -52.5t124.5 -93.5t80 -153.5t28 -231.5 q0 -157 -35.5 -258t-100.5 -160t-158.5 -81t-205.5 -22q-61 0 -145 10.5t-148 28.5v184q59 -15 137.5 -26t180.5 -11q132 0 190.5 76t58.5 236q0 91 -11.5 151.5t-38.5 99.5t-65 60t-89 32q-104 21 -178.5 57t-120.5 92t-66.5 135.5t-20.5 191.5zM200 2138h245l152 -171 l151 171h243l-283 -293h-223z" />
<glyph unicode="&#x161;" horiz-adv-x="1016" d="M138 1806h246l152 -214l150 214h246l-285 -342h-221zM152 900q0 104 32 176t89 118t136 67.5t168 21.5q99 0 166 -17t103 -28v-184q-63 16 -125.5 31t-164.5 15q-58 0 -94 -16.5t-56 -43t-26.5 -59.5t-6.5 -68q0 -138 160 -165q198 -33 277 -125.5t79 -254.5 q0 -107 -29 -180.5t-85 -120t-134.5 -66t-175.5 -19.5q-109 0 -184.5 14t-118.5 27v185q49 -10 140.5 -25t179.5 -15q99 0 141.5 59.5t42.5 126.5q0 93 -33.5 136t-126.5 59q-195 35 -274.5 122.5t-79.5 228.5z" />
<glyph unicode="&#x178;" horiz-adv-x="1240" d="M51 1771h241l336 -735l333 735h229l-458 -948v-823h-229v823zM272 1859v201h213v-201h-213zM777 1859v201h214v-201h-214z" />
<glyph unicode="&#x17d;" horiz-adv-x="1101" d="M114 0v224l653 1361h-594v186h815v-224l-650 -1361h625v-186h-849zM181 2138h248l151 -171l152 171h243l-286 -293h-221z" />
<glyph unicode="&#x17e;" horiz-adv-x="1019" d="M114 0v203l549 875h-498v187h727v-226l-546 -853h522v-186h-754zM152 1806h244l153 -214l152 214h241l-282 -342h-223z" />
<glyph unicode="&#x192;" horiz-adv-x="782" d="M-77 -251q38 -5 97 -7.5t89 -2.5q130 0 130 139v1202h-165v185h165v196q0 165 90 246.5t233 81.5q82 0 141 -12t95 -19v-180q-40 11 -87.5 19.5t-116.5 8.5t-104 -36t-35 -89v-216h307v-185h-307v-1189q0 -145 -78.5 -239t-234.5 -94q-61 0 -114.5 2.5t-104.5 7.5v181z " />
<glyph unicode="&#x2c6;" horiz-adv-x="968" d="M88 1466l285 342h221l287 -342h-248l-151 214l-152 -214h-242z" />
<glyph unicode="&#x2c7;" horiz-adv-x="968" d="M88 1806h245l152 -214l151 214h245l-284 -342h-221z" />
<glyph unicode="&#x2c9;" horiz-adv-x="821" d="M88 1531v176h644v-176h-644z" />
<glyph unicode="&#x2d8;" horiz-adv-x="894" d="M88 1808h207q5 -69 36.5 -121.5t115.5 -52.5q82 0 114.5 52t40.5 122h205q-7 -53 -27.5 -110t-60.5 -105.5t-106.5 -80t-165.5 -31.5q-101 0 -166 31.5t-105.5 80t-60 105.5t-27.5 110z" />
<glyph unicode="&#x2d9;" horiz-adv-x="414" d="M88 1555v216h215v-216h-215z" />
<glyph unicode="&#x2da;" horiz-adv-x="656" d="M88 1632q0 111 64 184.5t176 73.5q114 0 177.5 -72t63.5 -186q0 -112 -65 -185t-176 -73q-112 0 -176 74t-64 184zM231 1634q0 -43 20.5 -84t76.5 -41q61 0 78.5 38.5t17.5 86.5t-20 86t-76 38t-76.5 -39t-20.5 -85z" />
<glyph unicode="&#x2db;" horiz-adv-x="803" d="M165 -178q0 94 44.5 185.5t90.5 144.5h177q-23 -38 -45 -83.5t-36.5 -89t-22.5 -83.5t-8 -72q0 -66 27 -86t85 -20q30 0 80 5t85 11v-166q-38 -7 -91 -15t-99 -8q-79 0 -135 14.5t-89 46t-48 85t-15 131.5z" />
<glyph unicode="&#x2dc;" horiz-adv-x="882" d="M88 1502v185q59 46 113.5 65t105.5 19q45 0 81 -16.5t70.5 -33.5t66 -33t69.5 -16q66 0 110 22.5t92 68.5v-185q-48 -48 -99.5 -66t-116.5 -18q-48 0 -84 16t-68 33t-65 33t-73 16q-66 0 -114.5 -26.5t-87.5 -63.5z" />
<glyph unicode="&#x2dd;" horiz-adv-x="1171" d="M88 1512l260 373h305l-373 -373h-192zM519 1512l261 373h304l-373 -373h-192z" />
<glyph unicode="&#x3a9;" horiz-adv-x="1387" d="M165 905q0 223 24 388.5t84 276t161.5 165t257.5 54.5q157 0 259.5 -54.5t162.5 -165t84 -276t24 -388.5q0 -280 -34.5 -454t-125.5 -270h152v-181h-413v188q53 21 91 72.5t60.5 135.5t33 206t10.5 290q0 208 -15 345t-51 218.5t-94.5 114.5t-143.5 33q-86 0 -142.5 -33 t-92.5 -114.5t-52 -218.5t-16 -345q0 -170 10.5 -294t33 -207.5t61.5 -133t95 -71.5v-186h-413v181h146q-91 96 -124 270t-33 454z" />
<glyph unicode="&#x3bc;" horiz-adv-x="1253" d="M203 -432v1697h216v-887q2 -101 36.5 -157t143.5 -56q51 0 94.5 20t74 50.5t49.5 66.5t19 71v892h216v-1265h-176l-19 104q-54 -61 -124 -91.5t-166 -30.5q-82 0 -148 28v-442h-216z" />
<glyph unicode="&#x3c0;" horiz-adv-x="1400" d="M114 1080v185h1174v-185h-228v-785q0 -66 17.5 -92.5t65.5 -26.5q21 0 39.5 5t29.5 7v-175q-26 -5 -64 -11.5t-88 -6.5q-38 0 -76.5 13t-69 45.5t-50.5 88.5t-20 140v798h-314v-1080h-215v1080h-201z" />
<glyph unicode="&#xe01;" horiz-adv-x="1372" d="M120 1166v96q48 33 114 68.5t142 65t155 49t150 19.5q247 0 374 -117t127 -333v-1014h-204v1014q0 130 -66 202t-231 72q-114 0 -202 -31.5t-154 -72.5v-8l59 -45v-1131h-206v1115z" />
<glyph unicode="&#xe02;" horiz-adv-x="1192" d="M120 407v221q0 88 41.5 164t90 141t90.5 118.5t42 98.5q0 75 -24.5 104t-93.5 29h-146v173h146q158 0 234.5 -71.5t76.5 -234.5q0 -74 -38.5 -138t-86.5 -124t-86 -120t-38 -123v-238q0 -138 54.5 -194t197.5 -56q61 0 113 5.5t100 10.5v1270h208v-1435 q-66 -11 -194 -18.5t-277 -7.5q-82 0 -157 25t-131 76.5t-89 131.5t-33 192z" />
<glyph unicode="&#xe03;" horiz-adv-x="1266" d="M120 1329q0 18 2.5 55.5t7.5 58.5h203q-11 -53 -11 -74q0 -48 28 -63t46 -15q41 0 71.5 29t60.5 123h153v-226q0 -102 -43.5 -181.5t-98 -154t-99 -146.5t-44.5 -158v-170q3 -138 57.5 -194t199.5 -56q61 0 113 5.5t102 10.5v1270h207v-1435q-69 -11 -196.5 -18.5 t-274.5 -7.5q-85 0 -159.5 25t-130 76.5t-89.5 131.5t-34 192v170q0 91 49.5 176t109.5 165t110.5 153.5t50.5 140.5q-46 -51 -99 -61.5t-92 -10.5q-77 0 -138.5 47.5t-61.5 141.5z" />
<glyph unicode="&#xe04;" horiz-adv-x="1378" d="M176 0v1009q0 96 34 180t101 147.5t162.5 101.5t215.5 38q122 0 217 -38t160 -101.5t100 -149t35 -181.5v-1006h-210v1009q0 127 -77.5 207t-224.5 80q-144 0 -223.5 -80t-79.5 -207v-298q33 46 92.5 81.5t136.5 35.5q45 0 74.5 -4t50.5 -9v-195q-30 8 -68.5 10.5 t-72.5 2.5q-56 0 -96 -24.5t-65.5 -65t-38.5 -91t-13 -104.5v-348h-210z" />
<glyph unicode="&#xe05;" horiz-adv-x="1394" d="M176 0v1036q0 77 22.5 147.5t68 128t112 97t157.5 55.5l160 -133l165 130q173 -32 265.5 -151.5t92.5 -273.5v-1036h-210v1036q0 104 -36 153t-89 73l-176 -136h-32l-168 131q-53 -23 -87.5 -72t-34.5 -149v-325q33 46 92.5 81.5t136.5 35.5q45 0 74.5 -4t50.5 -9v-195 q-30 8 -68.5 10.5t-72.5 2.5q-56 0 -96 -24.5t-65.5 -65t-38.5 -91t-13 -104.5v-348h-210z" />
<glyph unicode="&#xe06;" horiz-adv-x="1346" d="M112 1329q0 18 4 55.5t9 58.5h203q-8 -30 -10.5 -48t-2.5 -26q0 -48 27.5 -63t46.5 -15q40 0 64 29t53 123h165v-231q0 -102 -45.5 -180.5t-98.5 -150t-98 -145t-45 -159.5v-127q2 -46 26 -96.5t65 -94t95.5 -73t125.5 -29.5q135 0 194.5 61.5t59.5 223.5v998h206v-998 q0 -242 -112 -351t-304 -109q-115 0 -220 47.5t-155 140.5l-17 -170h-170v577q0 96 51 181.5t112 164t111.5 150.5t50.5 139q-45 -51 -98.5 -61.5t-92.5 -10.5q-77 0 -138.5 47.5t-61.5 141.5z" />
<glyph unicode="&#xe07;" horiz-adv-x="1205" d="M51 1201h231l373 -1044h51q40 0 63.5 41t23.5 102v973h-175v167h396v-1140q0 -63 -17 -118t-47.5 -95.5t-71 -63.5t-85.5 -23h-293z" />
<glyph unicode="&#xe08;" horiz-adv-x="1250" d="M178 1222v181q82 26 193 42t215 16q277 0 399.5 -135.5t122.5 -433.5q0 -158 -44.5 -315.5t-97.5 -286.5q-61 -150 -138 -290h-274l-186 666h-150v167h288l190 -686q55 114 100 242q37 109 69 239.5t32 263.5q0 221 -74.5 304.5t-238.5 83.5q-61 0 -112 -3.5t-97.5 -10 t-93.5 -17.5t-103 -27z" />
<glyph unicode="&#xe09;" horiz-adv-x="1285" d="M96 663v170h288v-414q0 -56 7.5 -104.5t33 -82.5t75 -54.5t130.5 -20.5q67 0 116.5 29.5t83 73t50.5 94t22 96.5v591q0 130 -77 187.5t-236 57.5q-120 0 -213.5 -14.5t-202.5 -46.5v178q79 26 194 42t219 16q142 0 240 -30.5t160.5 -86.5t92 -133t29.5 -170v-1041h-171 l-13 170q-106 -188 -325 -188q-127 0 -208.5 32t-128 89t-65.5 138t-19 178v244h-82z" />
<glyph unicode="&#xe0a;" horiz-adv-x="1271" d="M157 1283v173h163q132 0 194.5 -57t62.5 -185q0 -64 -28 -122t-62.5 -117t-62.5 -119t-28 -124v-532q89 -45 249 -45q138 0 199 58.5t61 193.5v347q0 101 -13 163.5t-37 98.5t-57.5 47.5t-73.5 11.5h-66v124l199 340h240l-243 -346q51 -5 97.5 -25t81 -69.5t56 -132 t21.5 -209.5v-350q0 -213 -124.5 -319t-345.5 -106q-147 0 -263 32t-186 80v625q0 88 30 159.5t65.5 129t66.5 101.5t31 78q0 53 -18 74.5t-86 21.5h-123z" />
<glyph unicode="&#xe0b;" horiz-adv-x="1271" d="M69 1329q0 18 2.5 55.5t7.5 58.5h203q-10 -53 -10 -74q0 -48 21.5 -63t39.5 -15q40 0 64 29t53 123h147v-277q0 -66 -30.5 -138t-69.5 -148.5t-70 -151.5t-31 -151v-377q89 -45 249 -45q138 0 199 58.5t61 193.5v347q0 101 -13 163.5t-37 98.5t-57.5 47.5t-73.5 11.5h-66 v124l199 340h240l-243 -346q51 -5 97.5 -25t81 -69.5t56 -132t21.5 -209.5v-350q0 -213 -124.5 -319t-345.5 -106q-147 0 -263 32t-186 80v483q0 82 35 164t75 159.5t74.5 149t34.5 137.5q-41 -30 -75.5 -38.5t-73.5 -8.5q-76 0 -134 47.5t-58 141.5z" />
<glyph unicode="&#xe0c;" horiz-adv-x="2046" d="M120 1166v96q40 33 98.5 67.5t129.5 65t150 50t160 19.5q234 0 353.5 -117t119.5 -333v-564q3 -46 24 -96.5t60 -94t92.5 -73t122.5 -29.5q127 0 174 73t47 189v1021h201v-998q0 -221 -86 -340.5t-305 -119.5q-112 0 -204.5 47.5t-143.5 140.5l-18 -170h-165v1014 q0 130 -60 202t-212 72q-115 0 -197.5 -33t-135.5 -71v-8l59 -45v-851q0 -62 17.5 -87t61.5 -25q21 0 38.5 4t28.5 6v-165q-26 -8 -62 -14.5t-84 -6.5q-36 0 -71.5 12t-66 43.5t-49.5 85t-19 136.5v846z" />
<glyph unicode="&#xe0d;" horiz-adv-x="2030" d="M120 1166v96q40 33 98.5 67.5t129.5 65t150 50t160 19.5q234 0 353.5 -117t119.5 -333v-588q0 -74 11 -124.5t37.5 -82t73 -44.5t116.5 -13q119 0 192 79t82 191v1008h202v-1315q0 -104 -19.5 -194.5t-70.5 -158t-136 -106.5t-216 -39q-56 0 -118.5 5t-117 13.5t-97 15 t-61.5 9.5v170q23 -5 67.5 -11.5t97.5 -11.5t111.5 -10t112.5 -5q96 0 149 35.5t77 87.5t29.5 113t5.5 114q-51 -94 -140 -128t-180 -34q-117 0 -197 26.5t-128 81t-67.5 136t-19.5 192.5v588q0 130 -58.5 202t-210.5 72q-115 0 -197.5 -33t-135.5 -71v-8l59 -45v-851 q0 -62 17.5 -87t61.5 -25q21 0 38.5 4t28.5 6v-165q-26 -8 -62 -14.5t-84 -6.5q-36 0 -71.5 12t-66 43.5t-49.5 85t-19 136.5v846z" />
<glyph unicode="&#xe0e;" horiz-adv-x="1349" d="M64 13v165q8 -2 25.5 -6t37.5 -4q43 0 62 15t19 73v828l-86 74v96q43 33 106.5 70t141 67.5t160 51.5t159.5 21q253 0 386.5 -117t133.5 -341v-1097q0 -101 -25.5 -172.5t-72 -116t-113 -64t-146.5 -19.5q-67 0 -143 15.5t-134 15.5q-38 0 -71 -5t-59 -10q-30 -8 -59 -16 v173q30 8 59 16q26 5 59.5 10t70.5 5q53 0 125 -15.5t136 -15.5q94 0 131 49.5t37 149.5v1097q0 135 -71.5 208.5t-243.5 73.5q-125 0 -210 -37t-151 -82l84 -72v-850q0 -77 -15.5 -126t-45 -77t-69.5 -40t-87 -12q-45 0 -74.5 6.5t-56.5 14.5z" />
<glyph unicode="&#xe0f;" horiz-adv-x="1349" d="M64 13v165q8 -2 25.5 -6t37.5 -4q43 0 62 15t19 73v828l-86 74v96q43 33 106.5 70t141 67.5t160 51.5t159.5 21q253 0 386.5 -117t133.5 -341v-1131q0 -178 -84 -258t-233 -80l-206 104l-172 -104q-19 0 -47 1.5t-57 4t-55.5 5t-42.5 5.5v183q26 -8 80.5 -17t110.5 -9 l170 92h30l176 -92q53 0 89 29.5t36 135.5v1131q0 135 -71.5 208.5t-243.5 73.5q-125 0 -210 -35.5t-151 -76.5v-7l84 -72v-850q0 -77 -15.5 -126t-45 -77t-69.5 -40t-87 -12q-45 0 -74.5 6.5t-56.5 14.5z" />
<glyph unicode="&#xe10;" horiz-adv-x="1250" d="M178 1222v181q82 26 199.5 42t221.5 16q77 0 142.5 -10.5t119.5 -30.5l361 23v-178l-191 8q77 -130 77 -381q0 -158 -44.5 -315.5t-97.5 -286.5q-61 -150 -138 -290h-274l-186 666h-150v167h288l190 -686q55 114 100 242q37 109 69 239.5t32 263.5q0 112 -15.5 186.5 t-52 119.5t-93.5 63.5t-139 18.5q-61 0 -114.5 -3.5t-103 -10t-97.5 -17.5t-104 -27zM200 -264q26 -8 84.5 -17t111.5 -9l190 92h32l180 -92q66 0 87.5 19.5t21.5 67.5v59h201v-72q0 -135 -84 -191t-228 -56l-194 104l-198 -104q-18 0 -46 1.5t-58.5 4t-57 5t-42.5 5.5v183z " />
<glyph unicode="&#xe11;" horiz-adv-x="1453" d="M13 1342q0 20 2.5 58t7.5 59h203q-5 -30 -7.5 -49.5t-2.5 -25.5q0 -48 28 -62t43 -14q41 0 72.5 29t61.5 122h146l-79 -370q18 46 57 109.5t96 121t132.5 98.5t166.5 41q101 0 167.5 -30.5t106.5 -89.5t57 -145t17 -196v-998h-204v1024q0 115 -32.5 189.5t-141.5 74.5 q-56 0 -109 -33t-99.5 -86.5t-84 -118.5t-65.5 -127t-43.5 -114t-18.5 -80v-729h-203v854q0 48 14 111t29 115q20 65 46 132q-46 -38 -84 -47t-79 -9q-77 0 -138.5 48t-61.5 138z" />
<glyph unicode="&#xe12;" horiz-adv-x="2094" d="M125 708q0 142 22.5 267t72 224.5t127 167.5t183.5 97l212 -141l243 141q35 0 69.5 -5.5t63.5 -10.5q32 -8 64 -13l-3 -985q3 -46 23 -96.5t56 -94t88 -73t118 -29.5q71 0 118 20.5t72.5 54.5t35 82.5t9.5 104.5v1021h202v-998q0 -109 -18.5 -195.5t-65 -145t-125.5 -89 t-196 -30.5q-112 0 -198 47.5t-137 140.5l-18 -170h-165v1260l-214 -134h-35l-210 142q-91 -72 -138.5 -200t-47.5 -362q0 -165 17.5 -271.5t50.5 -168t78 -85.5t101 -24q61 0 101.5 6.5t66.5 14.5v-165q-21 -8 -79.5 -19.5t-125.5 -11.5q-191 0 -304.5 171.5t-113.5 554.5z " />
<glyph unicode="&#xe13;" horiz-adv-x="2046" d="M120 1166v94q50 37 112.5 74.5t132 66.5t144.5 46t149 17q247 0 360 -117t113 -333v-595q0 -56 11 -104.5t39 -82.5t76 -54.5t120 -20.5q58 0 107.5 29.5t85.5 73t57 94t24 96.5v990h201v-1440h-165l-18 170q-51 -93 -141 -140.5t-184 -47.5q-117 0 -197 30.5t-127.5 89 t-68.5 145t-21 195.5v572q0 64 -12.5 116t-43 87t-82.5 53t-134 18q-102 0 -188 -29t-148 -75v-8l62 -48v-848q0 -62 15.5 -87t60.5 -25q21 0 38.5 4t29.5 6v-165q-26 -8 -62.5 -14.5t-84.5 -6.5q-35 0 -71 12t-65 43.5t-48 85t-19 136.5v846z" />
<glyph unicode="&#xe14;" horiz-adv-x="1316" d="M125 668q0 224 40 374.5t115.5 243.5t186 133t249.5 40q128 0 238.5 -10.5t179.5 -18.5v-1430h-202v1275q-16 3 -45.5 4t-64 2.5t-70.5 3t-63 1.5q-86 0 -152 -33.5t-111 -108t-69 -191.5t-24 -287q0 -254 53 -381.5t170 -127.5q62 0 101 6.5t67 14.5v-165 q-23 -8 -81.5 -19.5t-123.5 -11.5q-195 0 -294.5 182t-99.5 504z" />
<glyph unicode="&#xe15;" horiz-adv-x="1370" d="M125 708q0 142 22.5 267t72 224.5t127 167.5t183.5 97l212 -141l251 141q35 0 69.5 -5.5t63.5 -10.5q32 -8 64 -13v-1435h-205v1260l-221 -134h-35l-210 142q-91 -72 -138.5 -200t-47.5 -362q0 -165 17.5 -271.5t50.5 -168t78 -85.5t101 -24q61 0 101.5 6.5t66.5 14.5 v-165q-21 -8 -79.5 -19.5t-125.5 -11.5q-191 0 -304.5 171.5t-113.5 554.5z" />
<glyph unicode="&#xe16;" horiz-adv-x="1372" d="M120 1166v94q50 37 116.5 74.5t140 66.5t152 46t152.5 17q247 0 374 -117t127 -333v-1014h-204v1014q0 130 -66 202t-231 72q-101 0 -199 -29t-160 -75v-8l62 -48v-848q0 -62 15.5 -87t60.5 -25q21 0 38.5 4t29.5 6v-165q-26 -8 -62.5 -14.5t-84.5 -6.5q-35 0 -71 12 t-65 43.5t-48 85t-19 136.5v846z" />
<glyph unicode="&#xe17;" horiz-adv-x="1346" d="M178 0v1427h170l17 -170q51 74 141.5 130t230.5 56q205 0 312 -110.5t107 -336.5v-996h-206v998q0 130 -52 202.5t-192 72.5q-66 0 -124 -25.5t-100.5 -66.5t-69 -93t-28.5 -108v-980h-206z" />
<glyph unicode="&#xe18;" horiz-adv-x="1171" d="M130 1089q0 125 50.5 196.5t128 109.5t169 48t177.5 10q96 0 182.5 -14t123.5 -26v-175q-61 13 -144 27.5t-181 14.5q-130 0 -212.5 -38t-82.5 -140q0 -61 31.5 -92.5t77 -49.5t97.5 -24t93 -12q111 -15 189 -49t126.5 -90t71 -137t22.5 -196q0 -470 -452 -470 q-59 0 -122 9t-121.5 24t-108.5 32t-85 35v538l194 -2v-418q23 -13 57 -21.5t69.5 -13.5t67.5 -7.5t54 -2.5q132 0 183 74t51 210q0 145 -52 212.5t-172 80.5q-93 10 -179.5 26.5t-153 52t-108 101.5t-41.5 177z" />
<glyph unicode="&#xe19;" horiz-adv-x="1346" d="M168 442v998h205v-1021q0 -56 13 -104.5t45 -82.5t85 -54.5t137 -20.5q66 0 122 29.5t97 73t63.5 94t27.5 96.5v990h206v-1440h-171l-13 170q-53 -93 -152 -140.5t-210 -47.5q-128 0 -214.5 30.5t-141 89t-77 145t-22.5 195.5z" />
<glyph unicode="&#xe1a;" horiz-adv-x="1327" d="M176 424v1016h205v-1016q0 -128 70 -198.5t215 -70.5q144 0 211.5 70t67.5 199v1016h205v-1016q0 -198 -121.5 -320t-362.5 -122q-123 0 -215 33t-153 93t-91.5 140t-30.5 176z" />
<glyph unicode="&#xe1b;" horiz-adv-x="1339" d="M176 424v1016h205v-1016q0 -128 73.5 -198.5t216.5 -70.5q144 0 214.5 70t70.5 199v1501h205v-1501q0 -198 -124 -320t-366 -122q-122 0 -214 33t-155 93t-94.5 140t-31.5 176z" />
<glyph unicode="&#xe1c;" horiz-adv-x="1453" d="M205 0v1440h407v-167h-216v-1012l259 519h148l259 -519v1179h200v-1440h-243l-282 549l-282 -549h-250z" />
<glyph unicode="&#xe1d;" horiz-adv-x="1453" d="M205 0v1440h407v-167h-216v-1012l259 519h148l259 -519v1662h200v-1923h-243l-282 549l-282 -549h-250z" />
<glyph unicode="&#xe1e;" horiz-adv-x="1511" d="M144 1440h212l91 -1107l234 729h180l217 -729l93 1107h198l-144 -1440h-221l-242 783l-251 -783h-219z" />
<glyph unicode="&#xe1f;" horiz-adv-x="1511" d="M144 1440h212l91 -1107l234 729h180l217 -729l134 1562h196l-183 -1895h-221l-242 783l-251 -783h-219z" />
<glyph unicode="&#xe20;" horiz-adv-x="1400" d="M64 13v165q8 -2 25.5 -6t37.5 -4q43 0 62 15t19 73v828l-86 74v96q43 33 106.5 70t141 67.5t160 51.5t159.5 21q253 0 386.5 -117t133.5 -341v-1006h-205v1006q0 135 -71.5 208.5t-243.5 73.5q-125 0 -210 -35.5t-151 -76.5v-7l84 -72v-850q0 -77 -15.5 -126t-45 -77 t-69.5 -40t-87 -12q-45 0 -74.5 6.5t-56.5 14.5z" />
<glyph unicode="&#xe21;" horiz-adv-x="1346" d="M178 0v1440h206v-990q2 -46 26 -96.5t65 -94t95.5 -73t125.5 -29.5q81 0 130.5 20.5t77.5 54.5t37 82.5t9 104.5v1021h206v-998q0 -109 -20.5 -195.5t-68.5 -145t-130.5 -89t-209.5 -30.5q-112 0 -212 47.5t-150 140.5l-17 -170h-170z" />
<glyph unicode="&#xe22;" horiz-adv-x="1324" d="M144 434q0 82 19.5 142t49 100t67 64t74.5 37q-72 30 -121.5 105.5t-49.5 206.5q0 107 25.5 178.5t73.5 114.5t115.5 60t153.5 17q56 0 94.5 -5.5t60.5 -13.5v-172q-21 5 -69 10t-91 5q-91 0 -121.5 -50.5t-30.5 -157.5q0 -69 17.5 -114t47 -70t63.5 -35t72 -10h102v-170 h-127q-66 0 -107 -17t-63.5 -50.5t-31 -81t-8.5 -108.5q0 -77 18.5 -128.5t52 -80.5t81.5 -39.5t107 -10.5q37 0 89 1t103 4q58 3 120 5v1270h204v-1440q-86 -5 -173 -10q-74 -6 -160.5 -7t-164.5 -1q-125 0 -218 20.5t-154 72.5t-90.5 138.5t-29.5 220.5z" />
<glyph unicode="&#xe23;" horiz-adv-x="1077" d="M133 1036q0 114 39 195.5t102.5 131.5t144.5 73t167 23q48 0 94.5 -5.5t86.5 -12t72 -13t50 -11.5v-177q-61 16 -143.5 31t-178.5 15q-112 0 -168 -68t-56 -172q0 -68 21.5 -110t53.5 -66t72 -34t79 -16q97 -15 169 -42t119.5 -73.5t73 -118.5t25.5 -179 q0 -200 -105.5 -312.5t-344.5 -112.5q-96 0 -182.5 14t-125.5 27v175q23 -6 60 -13t82.5 -12t92.5 -9t88 -4q64 0 107 21.5t68.5 56t35.5 76.5t10 82q0 69 -14 112t-39.5 67t-62.5 36t-83 19q-93 16 -168 43.5t-129.5 73.5t-83.5 115.5t-29 173.5z" />
<glyph unicode="&#xe24;" horiz-adv-x="1359" d="M122 1174v117q142 74 294.5 123.5t281.5 49.5q247 0 366.5 -117t119.5 -316v-1455h-204v1455q0 114 -59.5 185.5t-222.5 71.5q-91 0 -178.5 -21.5t-178.5 -65.5v-8l45 -40v-873q0 -62 16.5 -87t60.5 -25q21 0 38.5 4t28.5 6v-165q-26 -8 -62 -14.5t-84 -6.5 q-36 0 -71.5 12t-65 43.5t-48 85t-18.5 136.5v865z" />
<glyph unicode="&#xe25;" horiz-adv-x="1280" d="M107 419q0 236 129 342.5t404 106.5h244v173q0 130 -66.5 187.5t-210.5 57.5q-61 0 -110.5 -4t-95 -10.5t-90.5 -19t-98 -27.5v178q82 26 170 42t194 16q150 0 248.5 -28t156 -86.5t81.5 -148.5t24 -213v-985h-203v698h-256q-91 0 -152 -13.5t-97 -45.5t-50 -82.5 t-14 -122.5q0 -66 7.5 -117t29 -86.5t62.5 -54.5t107 -19q16 0 39.5 1.5t43.5 3.5q26 3 54 8v-175q-30 -5 -59 -8q-23 -5 -47 -6.5t-38 -1.5q-80 0 -153.5 18.5t-130.5 67.5t-90 134.5t-33 219.5z" />
<glyph unicode="&#xe26;" horiz-adv-x="1349" d="M64 13v165q8 -2 25.5 -6t37.5 -4q43 0 62 15t19 73v828l-86 74v96q43 33 106.5 70t141 67.5t160 51.5t159.5 21q253 0 386.5 -117t133.5 -341v-1432h-205v1432q0 135 -71.5 208.5t-243.5 73.5q-125 0 -210 -35.5t-151 -76.5v-7l84 -72v-850q0 -77 -15.5 -126t-45 -77 t-69.5 -40t-87 -12q-45 0 -74.5 6.5t-56.5 14.5z" />
<glyph unicode="&#xe27;" horiz-adv-x="1115" d="M107 1243v179q26 8 75 14.5t104 11.5t107 8t81 3q155 0 253.5 -51t155.5 -145t79.5 -226t22.5 -295q0 -205 -27.5 -350t-92 -236.5t-166.5 -132.5t-252 -41q-63 0 -125.5 11.5t-118.5 29.5v177q53 -13 123 -24t139 -11q179 0 244.5 130.5t65.5 400.5q0 132 -8 240 t-37 184t-86.5 117t-155.5 41q-46 0 -99.5 -2.5t-105.5 -6.5t-98.5 -10.5t-77.5 -15.5z" />
<glyph unicode="&#xe28;" horiz-adv-x="1357" d="M176 0v1022q0 91 34 172t100 143.5t160 100.5t211 38q67 0 137.5 -16.5t111.5 -32.5l345 16v-178l-165 8q51 -54 71 -120t20 -129v-1024h-210v1022q0 125 -82.5 199.5t-227.5 74.5q-147 0 -221 -74t-74 -200v-311q33 46 92.5 81.5t136.5 35.5q45 0 74.5 -4t50.5 -9v-195 q-30 8 -68.5 10.5t-72.5 2.5q-56 0 -96 -24.5t-65.5 -65t-38.5 -91t-13 -104.5v-348h-210z" />
<glyph unicode="&#xe29;" horiz-adv-x="1322" d="M188 424v1016h206v-1016q0 -128 63.5 -198.5t208.5 -70.5q144 0 206.5 70t62.5 199v305h-325v234h175v-79h150v556h205v-556h105v-155h-105v-305q0 -195 -116.5 -318.5t-357.5 -123.5q-240 0 -359 121t-119 321z" />
<glyph unicode="&#xe2a;" horiz-adv-x="1280" d="M107 419q0 236 129 342.5t404 106.5h244v173q0 130 -75 187.5t-202 57.5q-61 0 -110.5 -4t-95 -10.5t-90.5 -19t-98 -27.5v178q82 26 170 42t194 16q26 0 64 -2.5t77 -9t74.5 -14.5t59.5 -18l347 26v-178l-165 8q53 -99 53 -249v-1024h-203v698h-256q-91 0 -152 -13.5 t-97 -45.5t-50 -82.5t-14 -122.5q0 -66 7.5 -117t29 -86.5t62.5 -54.5t107 -19q16 0 39.5 1.5t43.5 3.5q26 3 54 8v-175q-30 -5 -59 -8q-23 -5 -47 -6.5t-38 -1.5q-80 0 -153.5 18.5t-130.5 67.5t-90 134.5t-33 219.5z" />
<glyph unicode="&#xe2b;" horiz-adv-x="1261" d="M205 0v1440h202v-457h307q106 0 152.5 105t46.5 352h208q0 -234 -49.5 -388.5t-166.5 -207.5l304 -844h-224l-284 810h-294v-810h-202z" />
<glyph unicode="&#xe2c;" horiz-adv-x="1511" d="M144 1440h212l78 -1097l247 544h180l228 -544q16 211 26.5 348t17.5 218.5t8.5 114.5t1.5 38q0 117 -56 165t-168 51v160q74 0 126 7.5t82.5 35.5t43.5 79t13 136h221q0 -119 -35.5 -188.5t-81.5 -107.5q-50 -43 -114 -53q35 -8 65.5 -25t53.5 -48t36 -77.5t13 -112.5v-8 t-3 -38t-6.5 -98t-13 -186.5t-23 -304t-31.5 -449.5h-229l-274 623l-288 -623h-220z" />
<glyph unicode="&#xe2d;" horiz-adv-x="1199" d="M160 82v754h407v-168h-213v-468q23 -13 53 -21.5t61.5 -13.5t61 -7.5t50.5 -2.5q71 0 126.5 21.5t92.5 83.5t57 175.5t20 296.5q0 170 -21.5 279.5t-61 170.5t-98.5 83.5t-136 22.5t-174.5 -9t-173.5 -22v168q20 5 59 11.5t82.5 11.5t88 8t75.5 3q142 0 248.5 -28 t178 -107t108 -218.5t36.5 -360.5q0 -224 -29.5 -370t-91 -234t-158.5 -123.5t-236 -35.5q-48 0 -106.5 9t-114.5 24t-106 32t-85 35z" />
<glyph unicode="&#xe2e;" horiz-adv-x="1199" d="M160 82v754h407v-168h-213v-468q23 -13 53 -21.5t61.5 -13.5t61 -7.5t50.5 -2.5q71 0 126.5 21.5t92.5 83.5t57 175.5t20 296.5q0 170 -21.5 279.5t-61 170.5t-98.5 83.5t-136 22.5t-174.5 -9t-173.5 -22v168q20 5 59 11.5t82.5 11.5t88 8t75.5 3q24 0 68 -3t91 -6.5 t86.5 -10t61.5 -14.5l373 15v-178l-213 8q13 -26 30.5 -65t33 -99t28 -148t12.5 -213q0 -224 -29.5 -370t-91 -234t-158.5 -123.5t-236 -35.5q-48 0 -106.5 9t-114.5 24t-106 32t-85 35z" />
<glyph unicode="&#xe2f;" horiz-adv-x="1037" d="M88 1294q0 53 8 90.5t13 58.5h203q-8 -30 -15 -63t-7 -70q0 -42 25.5 -67.5t88.5 -25.5q102 0 171.5 66t97.5 160h153v-1443h-203v1169q-33 -30 -100.5 -67t-163.5 -37q-135 0 -203 59.5t-68 169.5z" />
<glyph unicode="&#xe30;" horiz-adv-x="851" d="M120 155v348h205v-170h407v-178h-612zM120 881v349h205v-168h407v-181h-612z" />
<glyph unicode="&#xe31;" d="M-770 1702v338h193v-171h697v-167h-890z" />
<glyph unicode="&#xe32;" horiz-adv-x="971" d="M79 1243v179q51 13 127 25t137 12q135 0 221 -32t133.5 -103.5t65 -185.5t17.5 -272v-866h-205v818q0 132 -4 221t-25.5 142.5t-65 75t-124.5 21.5q-93 0 -151 -9t-126 -26z" />
<glyph unicode="&#xe33;" horiz-adv-x="971" d="M-516 1845q0 104 60 171t166 67q109 0 169 -64.5t60 -173.5q0 -107 -62.5 -173t-166.5 -66q-106 0 -166 66t-60 173zM-381 1845q0 -38 19 -73.5t72 -35.5q59 0 74.5 31.5t15.5 77.5q0 45 -18.5 77t-71.5 32t-72 -33t-19 -76zM79 1243v179q51 13 127 25t137 12 q135 0 221 -32t133.5 -103.5t65 -185.5t17.5 -272v-866h-205v818q0 132 -4 221t-25.5 142.5t-65 75t-124.5 21.5q-93 0 -151 -9t-126 -26z" />
<glyph unicode="&#xe34;" d="M-1092 1677v168h901v-168h-901z" />
<glyph unicode="&#xe35;" d="M-1084 1677v168h700v195h193v-363h-893z" />
<glyph unicode="&#xe36;" d="M-1092 1677v168h493q-3 13 -3 43q0 104 64 161t152 57q91 0 153.5 -54.5t62.5 -163.5q0 -107 -56 -159t-160 -52h-706zM-463 1890q0 -40 15.5 -68t61.5 -28q51 0 64 25.5t13 70.5q0 46 -16 70t-61 24q-46 0 -61.5 -25.5t-15.5 -68.5z" />
<glyph unicode="&#xe37;" d="M-1092 1677v168h490v195h157v-195h97v195h157v-363h-901z" />
<glyph unicode="&#xe38;" d="M-528 -162q30 5 63 10t79 5q86 0 136 -34.5t50 -95.5v-335h-186v247q0 21 -10.5 32t-53.5 11q-15 0 -39.5 -3t-38.5 -5v168z" />
<glyph unicode="&#xe39;" d="M-894 -178q23 8 59.5 14.5t70.5 6.5q88 0 133 -43.5t45 -106.5v-164q0 -37 28 -54.5t70 -17.5q41 0 70 17.5t29 54.5v303h198v-292q0 -120 -82.5 -170.5t-214.5 -50.5q-149 0 -223 52t-74 144v109q0 21 -8 33.5t-40 12.5q-13 0 -30.5 -2.5t-30.5 -5.5v160z" />
<glyph unicode="&#xe3a;" d="M-432 -191h241v-241h-241v241z" />
<glyph unicode="&#xe3f;" horiz-adv-x="1277" d="M205 0v1598q38 2 80 8q37 5 81 7.5t94 7.5v254h206v-254q197 -13 300.5 -113t103.5 -321q0 -152 -60 -231.5t-131 -109.5q35 -13 76 -33t75.5 -59.5t57 -104.5t22.5 -167q0 -141 -30.5 -235.5t-87.5 -151.5t-139.5 -82.5t-186.5 -28.5v-250h-206v250q-53 3 -99 5.5 t-81 5.5q-41 2 -75 5zM412 170q35 -2 73 -5q32 -3 72 -4t76 -1q59 0 107 8t82.5 38.5t53 91.5t18.5 167q0 158 -54.5 220.5t-203.5 62.5h-224v-578zM412 924h200q46 0 89.5 5.5t80 30.5t58 74t21.5 137q0 74 -10 127.5t-38 88.5t-76 50.5t-125 15.5q-45 0 -81 -2.5t-63 -4.5 q-30 -3 -56 -6v-516z" />
<glyph unicode="&#xe40;" horiz-adv-x="635" d="M191 269v1171h205v-1160q0 -62 16.5 -87t64.5 -25q21 0 38.5 4t25.5 6v-165q-26 -8 -62.5 -14.5t-82.5 -6.5q-35 0 -70.5 12t-66 43.5t-49.5 85t-19 136.5z" />
<glyph unicode="&#xe41;" horiz-adv-x="1274" d="M191 269v1171h205v-1160q0 -62 16.5 -87t64.5 -25q21 0 38.5 4t25.5 6v-165q-26 -8 -62.5 -14.5t-82.5 -6.5q-35 0 -70.5 12t-66 43.5t-49.5 85t-19 136.5zM833 269v1171h203v-1160q0 -62 15.5 -87t63.5 -25q19 0 37.5 4t26.5 6v-165q-26 -8 -62.5 -14.5t-80.5 -6.5 q-38 0 -73.5 12t-63.5 43.5t-47 85t-19 136.5z" />
<glyph unicode="&#xe42;" horiz-adv-x="635" d="M-40 1850q0 114 41.5 189t105 116.5t138.5 57t141 15.5q48 0 95 -5t88 -11.5t72.5 -13t50.5 -13.5v-175q-62 15 -144.5 29t-179.5 14q-77 0 -138.5 -29.5t-61.5 -103.5q35 -21 76 -62.5t74 -104.5t55.5 -147t22.5 -189v-1137q0 -62 16.5 -87t64.5 -25q21 0 38.5 4t25.5 6 v-165q-26 -8 -62.5 -14.5t-82.5 -6.5q-35 0 -70.5 12t-66 43.5t-49.5 85t-19 136.5v1100q0 216 -65 327.5t-166 153.5z" />
<glyph unicode="&#xe43;" horiz-adv-x="635" d="M-56 1949v208q30 15 75 27.5t91.5 23t90 15.5t73.5 5q67 0 132 -17t114 -54.5t79.5 -94.5t30.5 -137q0 -56 -37 -109t-81 -117.5t-80 -143.5t-36 -186v-1089q0 -62 16.5 -87t64.5 -25q21 0 38.5 4t25.5 6v-165q-26 -8 -62.5 -14.5t-82.5 -6.5q-35 0 -70.5 12t-66 43.5 t-49.5 85t-19 136.5v1148q0 107 36.5 177t78.5 123.5t78.5 100t36.5 102.5q0 77 -37.5 105t-114.5 28t-165 -29.5t-160 -74.5z" />
<glyph unicode="&#xe44;" horiz-adv-x="635" d="M-30 1997v181q43 -16 110 -24t133 -8q99 0 159 9t108 28h138v-128q0 -85 -34.5 -162t-76.5 -158t-76.5 -170t-34.5 -196v-1089q0 -62 16.5 -87t64.5 -25q21 0 38.5 4t25.5 6v-165q-26 -8 -62.5 -14.5t-82.5 -6.5q-35 0 -70.5 12t-66 43.5t-49.5 85t-19 136.5v1148 q0 107 37.5 187.5t82.5 150t83 130.5t38 130q-41 -21 -104.5 -31.5t-122.5 -10.5q-154 0 -235 24z" />
<glyph unicode="&#xe45;" horiz-adv-x="971" d="M79 1243v179q51 13 127 25t137 12q135 0 221 -32t133.5 -103.5t65 -185.5t17.5 -272v-1276h-205v1228q0 132 -4 221t-25.5 142.5t-65 75t-124.5 21.5q-93 0 -151 -9t-126 -26z" />
<glyph unicode="&#xe46;" horiz-adv-x="1240" d="M138 1087q0 183 82.5 268t216.5 85l152 -111l181 111q149 0 215.5 -73t66.5 -252v-1424h-206v1424q0 77 -18 107t-74 30l-150 -104h-29l-146 104q-35 0 -55 -32.5t-20 -132.5q0 -67 12 -126t25 -93h-213q-16 41 -28 96t-12 123z" />
<glyph unicode="&#xe47;" d="M-996 1811v21q0 114 75 190t229 76q74 0 138 -5t125 -5q77 0 146.5 9t87.5 19v-165q-33 -5 -88 -13t-141 -8q-64 0 -143.5 7t-124.5 7q-71 0 -98.5 -31t-27.5 -81v-11q0 -35 21.5 -56.5t62.5 -21.5q58 0 84.5 14t55.5 62h66q11 -30 48.5 -53t95.5 -23h147v-161h-152 q-130 0 -170 92q-21 -40 -65 -66t-140 -26q-99 0 -165.5 62.5t-66.5 166.5z" />
<glyph unicode="&#xe48;" d="M-384 2353v195h193v-195l-27 -207h-141z" />
<glyph unicode="&#xe49;" d="M-666 2311v160h325v-149h341v-165h-521v154h-145z" />
<glyph unicode="&#xe4a;" d="M-881 2132v195q0 48 39 90.5t123 42.5h51l122 -98l101 98h59q69 0 110.5 -41t41.5 -89v-43q53 0 104 9.5t104 25.5v-170q-30 -8 -65 -14q-66 -12 -148 -14q-67 0 -109 8q-26 5 -51 12v167l-131 -85h-34l-128 88v-182h-189z" />
<glyph unicode="&#xe4b;" d="M-554 2311v181h158v150h205v-150h156v-181h-168l-15 -144h-155l-13 144h-168z" />
<glyph unicode="&#xe4c;" d="M-577 1994v310h481v-166h-288v-144h-193z" />
<glyph unicode="&#xe4d;" d="M-516 1845q0 104 60 171t166 67q109 0 169 -64.5t60 -173.5q0 -107 -62.5 -173t-166.5 -66q-106 0 -166 66t-60 173zM-381 1845q0 -38 19 -73.5t72 -35.5q59 0 74.5 31.5t15.5 77.5q0 45 -18.5 77t-71.5 32t-72 -33t-19 -76z" />
<glyph unicode="&#xe4e;" horiz-adv-x="2104" />
<glyph unicode="&#xe4f;" horiz-adv-x="1428" d="M133 679q0 175 46.5 303t126.5 212t186.5 123.5t223.5 39.5q115 0 220 -39.5t185 -123.5t127.5 -212t47.5 -303q0 -176 -47.5 -304t-127.5 -212t-185 -123.5t-220 -39.5q-117 0 -223.5 39.5t-186.5 123.5t-126.5 212t-46.5 304zM292 679q0 -280 116 -417t308 -137 q191 0 303 137t112 417q0 279 -112 416t-303 137t-307.5 -137t-116.5 -416zM511 679q0 144 58.5 207.5t144.5 63.5t144 -63.5t58 -207.5q0 -130 -60 -194t-142 -64t-142.5 64t-60.5 194z" />
<glyph unicode="&#xe50;" horiz-adv-x="1359" d="M125 692q0 183 43 311t117 206.5t176.5 113t219.5 34.5q115 0 216 -34.5t177 -113t118.5 -206.5t42.5 -311q0 -221 -45 -359t-121 -215.5t-176 -106.5t-212 -29t-212.5 29t-176.5 106.5t-121.5 215.5t-45.5 359zM333 658q0 -274 90.5 -390t257.5 -116q163 0 253 116 t90 390q0 147 -20.5 249t-63.5 163t-108 89t-151 28q-88 0 -153 -28t-108.5 -89t-65 -164t-21.5 -248z" />
<glyph unicode="&#xe51;" horiz-adv-x="1378" d="M125 767q0 125 33 233t104 188t177.5 124.5t252.5 44.5q162 0 270 -52.5t172.5 -148.5t91 -231t26.5 -297q0 -397 -140 -572.5t-423 -175.5q-59 0 -131.5 8t-125.5 21v177q53 -11 133 -16.5t143 -5.5q181 0 257 146t76 418q0 132 -15 236t-53 175t-106.5 108t-174.5 37 q-176 0 -267.5 -106t-91.5 -314q0 -101 16 -162t43 -97.5t62.5 -48t73.5 -11.5q30 0 41 2.5t30 7.5v226h194v-356q-51 -35 -108 -49.5t-155 -14.5q-79 0 -153 21t-130 77t-89 154.5t-33 253.5z" />
<glyph unicode="&#xe52;" horiz-adv-x="1514" d="M188 447v1164h214v-1179q0 -112 105 -180.5t305 -68.5q181 0 271.5 72.5t90.5 176.5v599q0 77 -19 106t-71 29l-126 -79h-28l-120 79q-35 0 -56.5 -29t-21.5 -141q0 -38 1 -79t4 -77.5t5.5 -62.5t2.5 -37h-212q-3 40 -8.5 113.5t-5.5 142.5q0 112 21.5 182.5t61.5 109 t94.5 53t121.5 14.5l124 -87l155 87q150 0 221.5 -73t71.5 -251v-584q0 -88 -32 -172t-103 -149t-180 -103.5t-260 -38.5q-327 0 -477 120t-150 343z" />
<glyph unicode="&#xe53;" horiz-adv-x="1554" d="M150 341v655q0 86 30.5 153.5t79.5 114t111.5 72t128.5 25.5q120 0 195 -54.5t103 -132.5q30 79 106 131t183 52q138 0 229.5 -80.5t91.5 -278.5v-998h-215v1001q0 94 -29.5 134.5t-109.5 40.5q-50 0 -78 -21t-41 -53t-16 -69t-3 -72v-961h-215v961q0 101 -45.5 149 t-131.5 48q-77 0 -121 -49t-44 -126v-648q0 -91 37.5 -125t111.5 -34q54 0 86 7q18 3 31 8v-181q-26 -7 -66 -16.5t-85 -9.5q-159 0 -241.5 97t-82.5 260z" />
<glyph unicode="&#xe54;" horiz-adv-x="1370" d="M130 384v419q0 259 130.5 397.5t397.5 138.5h236q77 0 105.5 25.5t28.5 75.5v97h215v-97q0 -167 -91.5 -235.5t-270.5 -68.5h-221q-172 0 -243 -78t-71 -255v-409q0 -102 54.5 -159t166.5 -57q45 0 97 15t81 33q-16 33 -40 108.5t-24 179.5q0 130 58.5 206t179.5 76h170 v-192h-123q-40 0 -63.5 -25t-23.5 -68q0 -170 58.5 -247.5t146.5 -77.5h135v-186h-147q-90 0 -137.5 17.5t-90.5 54.5q-54 -38 -131 -63t-162 -25q-99 0 -177.5 33.5t-132 89t-82.5 128t-29 149.5z" />
<glyph unicode="&#xe55;" horiz-adv-x="1405" d="M130 384v419q0 203 88.5 340t284.5 175q-10 21 -10 51q0 93 58.5 147t144.5 54q88 0 144.5 -53t56.5 -143v-21.5t-3 -23.5q74 0 118.5 20t44.5 89v104h211v-99q0 -168 -100.5 -237.5t-280.5 -69.5h-227q-172 0 -243 -78t-71 -255v-409q0 -102 54.5 -159t166.5 -57 q45 0 97 15t81 33q-16 33 -40 108.5t-24 179.5q0 130 58.5 206t179.5 76h170v-192h-123q-40 0 -63.5 -25t-23.5 -68q0 -170 58.5 -247.5t146.5 -77.5h135v-186h-147q-90 0 -137.5 17.5t-90.5 54.5q-54 -38 -131 -63t-162 -25q-99 0 -177.5 33.5t-132 89t-82.5 128t-29 149.5 zM625 1372q0 -30 19 -50.5t54 -20.5q26 0 47.5 20.5t21.5 50.5q0 29 -21.5 51.5t-47.5 22.5q-35 0 -54 -23t-19 -51z" />
<glyph unicode="&#xe56;" horiz-adv-x="1336" d="M127 1557h203l56 -300q59 61 142.5 82.5t169.5 21.5q251 0 381 -133t130 -382v-322q0 -261 -128 -400.5t-375 -139.5q-135 0 -255.5 37t-203.5 109v384h216v-280q48 -38 106.5 -51t136.5 -13q155 0 221 92t66 262v322q0 171 -74.5 248t-220.5 77q-69 0 -117 -11.5 t-83 -35.5t-57 -56t-42 -72h-148z" />
<glyph unicode="&#xe57;" horiz-adv-x="1748" d="M150 341v705q0 80 26.5 138.5t68.5 97.5t95.5 59t109.5 20q86 0 157.5 -36.5t93.5 -123.5q10 41 38 70.5t63.5 50t74.5 30t71 9.5q144 0 217 -92.5t73 -288.5v-810q76 0 123 48t47 168v1222h216v-1201q0 -203 -105.5 -313t-291.5 -110q-48 0 -101.5 4t-106.5 17v975 q0 96 -26.5 137t-73.5 41q-53 0 -93.5 -44t-40.5 -113v-250h-181v255q0 64 -34 108t-96 44q-53 0 -84 -35.5t-31 -88.5v-699q0 -91 37.5 -125t111.5 -34q56 0 96 7q24 3 46 8v-181q-23 -7 -71.5 -16.5t-104.5 -9.5q-159 0 -241.5 97t-82.5 260z" />
<glyph unicode="&#xe58;" horiz-adv-x="1426" d="M130 309v572q0 89 34 169.5t95 145t145 102.5t188 38h348q77 0 107.5 36t30.5 94v142h221v-178q0 -120 -88 -207t-266 -87h-333q-127 0 -190 -71.5t-63 -180.5v-572q0 -64 31 -107t90 -43h31l240 211h19l218 -211q48 0 78.5 32t30.5 104v277h-165v173h367v-450 q0 -136 -58.5 -226t-168.5 -90h-132l-181 165l-173 -163h-115q-160 0 -250.5 89t-90.5 236z" />
<glyph unicode="&#xe59;" horiz-adv-x="1367" d="M130 341v668q0 82 34 149t86.5 111t120.5 68t137 24q112 0 183 -41.5t110 -102.5q10 61 59.5 102.5t124.5 41.5q91 0 125.5 28t34.5 89v79h207v-96q0 -122 -82.5 -203.5t-238.5 -81.5q-69 0 -95 -48t-26 -100q0 -30 25 -109l229 -919h-224l-264 1062q-13 48 -51.5 77.5 t-103.5 29.5q-88 0 -134 -44.5t-46 -115.5v-674q0 -91 37 -130.5t112 -39.5q26 0 50 1.5t46 3.5q24 3 44 8v-168q-23 -7 -71 -16.5t-104 -9.5q-160 0 -242.5 97t-82.5 260z" />
<glyph unicode="&#x2000;" horiz-adv-x="1321" />
<glyph unicode="&#x2001;" horiz-adv-x="2642" />
<glyph unicode="&#x2002;" horiz-adv-x="1321" />
<glyph unicode="&#x2003;" horiz-adv-x="2642" />
<glyph unicode="&#x2004;" horiz-adv-x="880" />
<glyph unicode="&#x2005;" horiz-adv-x="660" />
<glyph unicode="&#x2006;" horiz-adv-x="440" />
<glyph unicode="&#x2007;" horiz-adv-x="440" />
<glyph unicode="&#x2008;" horiz-adv-x="330" />
<glyph unicode="&#x2009;" horiz-adv-x="528" />
<glyph unicode="&#x200a;" horiz-adv-x="146" />
<glyph unicode="&#x2010;" horiz-adv-x="1250" d="M216 696v188h820v-188h-820z" />
<glyph unicode="&#x2011;" horiz-adv-x="1250" d="M216 696v188h820v-188h-820z" />
<glyph unicode="&#x2012;" horiz-adv-x="1250" d="M216 696v188h820v-188h-820z" />
<glyph unicode="&#x2013;" horiz-adv-x="1389" d="M216 696v188h960v-188h-960z" />
<glyph unicode="&#x2014;" horiz-adv-x="1530" d="M165 696v188h1201v-188h-1201z" />
<glyph unicode="&#x2018;" horiz-adv-x="569" d="M138 1143v229l152 396h165l-77 -396v-229h-240z" />
<glyph unicode="&#x2019;" horiz-adv-x="569" d="M114 1145l74 397v229h241v-229l-152 -397h-163z" />
<glyph unicode="&#x201a;" horiz-adv-x="556" d="M125 -396l78 396v226h239v-226l-152 -396h-165z" />
<glyph unicode="&#x201c;" horiz-adv-x="960" d="M138 1143v229l152 396h165l-77 -396v-229h-240zM530 1143v229l151 396h165l-74 -396v-229h-242z" />
<glyph unicode="&#x201d;" horiz-adv-x="960" d="M114 1145l74 397v229h241v-229l-152 -397h-163zM506 1145l74 397v229h243v-229l-152 -397h-165z" />
<glyph unicode="&#x201e;" horiz-adv-x="947" d="M125 -396l78 396v226h239v-226l-152 -396h-165zM519 -396l75 396v226h239v-226l-152 -396h-162z" />
<glyph unicode="&#x2020;" horiz-adv-x="1186" d="M138 1075v190h357v506h203v-506h354v-190h-354v-1075h-203v1075h-357z" />
<glyph unicode="&#x2021;" horiz-adv-x="1186" d="M138 530v192h357v353h-357v190h357v506h203v-506h354v-190h-354v-353h354v-192h-354v-530h-203v530h-357z" />
<glyph unicode="&#x2022;" horiz-adv-x="731" d="M176 594v391h380v-391h-380z" />
<glyph unicode="&#x2026;" horiz-adv-x="1692" d="M165 0v254h254v-254h-254zM722 0v254h253v-254h-253zM1278 0v254h253v-254h-253z" />
<glyph unicode="&#x202f;" horiz-adv-x="528" />
<glyph unicode="&#x2030;" horiz-adv-x="2978" d="M216 1265q0 119 13 215t50.5 165.5t105 106.5t177.5 37q111 0 179.5 -37t105.5 -106.5t48.5 -165.5t11.5 -215q0 -120 -13 -220t-50 -172t-105 -111.5t-177 -39.5q-110 0 -177.5 39.5t-105 111.5t-50.5 172t-13 220zM389 1254q0 -205 37 -294t136 -89q96 0 133 90.5 t37 292.5q0 206 -37 296.5t-133 90.5q-99 0 -136 -90t-37 -297zM676 0l618 1771h197l-617 -1771h-198zM1257 528q0 117 13 213.5t50 165t105.5 105.5t177.5 37q112 0 179.5 -37t105 -105.5t49.5 -165t12 -213.5q0 -120 -13 -220t-51 -172t-105.5 -113t-176.5 -41t-177.5 41 t-105.5 113t-50 171.5t-13 220.5zM1433 516q0 -208 37 -297t133 -89q99 0 136 90.5t37 295.5q0 203 -37 293.5t-136 90.5q-96 0 -133 -89t-37 -295zM2071 528q0 117 13.5 213.5t50.5 165t105.5 105.5t177.5 37q112 0 179.5 -37t104.5 -105.5t49.5 -165t12.5 -213.5 q0 -120 -14 -220t-51 -172t-104.5 -113t-176.5 -41t-177.5 41t-105.5 113t-50.5 171.5t-13.5 220.5zM2248 516q0 -208 37 -297t133 -89q99 0 136 90.5t37 295.5q0 203 -37.5 293.5t-135.5 90.5q-96 0 -133 -89t-37 -295z" />
<glyph unicode="&#x2039;" horiz-adv-x="770" d="M188 757l227 523h165l-156 -523l156 -526h-165z" />
<glyph unicode="&#x203a;" horiz-adv-x="770" d="M188 231l160 526l-160 523h168l224 -523l-224 -526h-168z" />
<glyph unicode="&#x2044;" horiz-adv-x="579" d="M-216 -254l810 2302h202l-809 -2302h-203z" />
<glyph unicode="&#x205f;" horiz-adv-x="660" />
<glyph unicode="&#x20ac;" horiz-adv-x="1237" d="M138 599l50 184h102v248h-152l50 183h112q16 178 65.5 291t124 175.5t173.5 85.5t216 23q23 0 61 -5.5t75 -12t67.5 -14t45.5 -14.5l-50 -173q-69 16 -126.5 24.5t-118.5 8.5q-56 0 -106.5 -15t-91.5 -57.5t-69 -118.5t-38 -198h409l-50 -183h-371v-248h347l-51 -184 h-288q8 -141 38 -225t70.5 -130t92.5 -61t108 -15q77 0 139 10t106 25v-180q-43 -13 -105.5 -27t-126.5 -14q-114 0 -208.5 28t-164 97t-113 188.5t-60.5 303.5h-162z" />
<glyph unicode="&#x2122;" horiz-adv-x="1895" d="M101 1621v150h1022l171 -361l165 361h274v-1153h-168v1011l-213 -447h-130l-213 447v-1011h-165v1003h-277v-1003h-173v1003h-293z" />
<glyph unicode="&#x2126;" horiz-adv-x="1387" d="M165 905q0 223 24 388.5t84 276t161.5 165t257.5 54.5q157 0 259.5 -54.5t162.5 -165t84 -276t24 -388.5q0 -280 -34.5 -454t-125.5 -270h152v-181h-413v188q53 21 91 72.5t60.5 135.5t33 206t10.5 290q0 208 -15 345t-51 218.5t-94.5 114.5t-143.5 33q-86 0 -142.5 -33 t-92.5 -114.5t-52 -218.5t-16 -345q0 -170 10.5 -294t33 -207.5t61.5 -133t95 -71.5v-186h-413v181h146q-91 96 -124 270t-33 454z" />
<glyph unicode="&#x2202;" horiz-adv-x="1186" d="M147 538q0 130 14.5 238t58.5 185.5t121.5 119.5t204.5 42q94 0 160 -25.5t106 -53.5q-5 186 -23.5 299t-53 171.5t-85.5 77.5t-120 19q-82 0 -150 -13t-119 -28v180q16 5 45 11.5t62.5 13t69.5 10.5t65 4q120 0 217.5 -30.5t166.5 -118.5t106.5 -249t37.5 -419 q0 -317 -25.5 -511.5t-80 -301t-139.5 -142t-206 -35.5q-86 0 -162.5 22t-138 85t-97 171t-35.5 278zM363 521q0 -180 50 -268t184 -88q56 0 95.5 24t66 99t40 214.5t16.5 371.5q-23 13 -89 39.5t-162 26.5q-69 0 -109 -25.5t-61 -77.5t-26 -130.5t-5 -185.5z" />
<glyph unicode="&#x2206;" horiz-adv-x="1288" d="M64 0l450 1771h279l434 -1771h-1163zM335 188h618l-300 1394z" />
<glyph unicode="&#x220f;" horiz-adv-x="1426" d="M114 1582v189h1199v-189h-226v-1287q0 -66 15.5 -92.5t66.5 -26.5q21 0 39.5 5t29.5 7v-175q-30 -5 -67 -11.5t-84 -6.5q-38 0 -78.5 13t-72 45.5t-51 88.5t-19.5 140v1300h-333v-1582h-218v1582h-201z" />
<glyph unicode="&#x2211;" horiz-adv-x="1186" d="M101 -191l427 867l-395 855v240h913v-189h-690l411 -906l-447 -918h755v-190h-974v241z" />
<glyph unicode="&#x2212;" horiz-adv-x="1389" d="M216 696v188h960v-188h-960z" />
<glyph unicode="&#x2215;" horiz-adv-x="579" d="M-216 -254l810 2302h202l-809 -2302h-203z" />
<glyph unicode="&#x2219;" horiz-adv-x="579" d="M165 658v252h254v-252h-254z" />
<glyph unicode="&#x221a;" horiz-adv-x="1402" d="M88 991h227l231 -836l447 1919h447v-189h-284l-442 -1885h-325z" />
<glyph unicode="&#x221e;" horiz-adv-x="1844" d="M114 783q0 197 112 306.5t346 109.5q99 0 186.5 -42t154.5 -159q45 94 138.5 147.5t223.5 53.5q234 0 346 -109.5t112 -306.5q0 -195 -112 -304t-346 -109q-101 0 -186 40t-154 159q-43 -93 -138.5 -146t-224.5 -53q-234 0 -346 109.5t-112 303.5zM325 783 q0 -128 61 -178.5t181 -50.5q149 0 205 67.5t56 235.5q-32 74 -102.5 115.5t-158.5 41.5q-117 0 -179.5 -52t-62.5 -179zM1022 711q30 -74 99 -115.5t159 -41.5q118 0 180 50.5t62 178.5q0 127 -61 179t-181 52q-74 0 -123 -15.5t-80 -52t-43 -95t-12 -140.5z" />
<glyph unicode="&#x2224;" horiz-adv-x="579" d="M165 658v252h254v-252h-254z" />
<glyph unicode="&#x2227;" horiz-adv-x="579" d="M165 658v252h254v-252h-254z" />
<glyph unicode="&#x222b;" horiz-adv-x="821" d="M-51 -402q41 -10 89 -17t117 -7t103 33.5t34 89.5v2068q0 165 89.5 244t233.5 79q82 0 145 -10t101 -18v-178q-41 11 -93 16t-121 5t-104 -33t-35 -86v-2069q0 -165 -89 -243.5t-233 -78.5q-82 0 -140.5 9t-96.5 14v182z" />
<glyph unicode="&#x2248;" horiz-adv-x="1288" d="M216 434v196q86 54 144.5 70t113.5 16q51 0 96 -16t89 -33t87.5 -33t91.5 -16q69 0 126.5 26.5t110.5 63.5v-197q-58 -38 -123 -60t-134 -22q-54 0 -98 15.5t-86 33t-86.5 34t-97.5 16.5q-66 0 -123.5 -28.5t-110.5 -65.5zM216 866v196q86 53 144.5 68t113.5 15 q51 0 96 -16t89 -33.5t87.5 -33.5t91.5 -16q69 0 126.5 27t110.5 63v-196q-58 -38 -123 -60.5t-134 -22.5q-54 0 -98 16t-86 33.5t-86.5 33.5t-97.5 16q-66 0 -123.5 -27t-110.5 -63z" />
<glyph unicode="&#x2260;" horiz-adv-x="1389" d="M216 176l162 266h-162v188h279l197 318h-476v188h594l165 267h201l-165 -267h165v-188h-282l-196 -318h478v-188h-596l-161 -266h-203z" />
<glyph unicode="&#x2264;" horiz-adv-x="1389" d="M216 0v188h960v-188h-960zM216 708v267l960 452v-234l-780 -344l780 -295v-237z" />
<glyph unicode="&#x2265;" horiz-adv-x="1389" d="M216 0v188h960v-188h-960zM216 317v237l777 295l-777 344v234l960 -452v-267z" />
<glyph unicode="&#x22c5;" horiz-adv-x="579" d="M165 658v252h254v-252h-254z" />
<glyph unicode="&#x25af;" horiz-adv-x="1268" d="M165 0v1771h940v-1771h-940zM354 181h562v1409h-562v-1409z" />
<glyph unicode="&#x25ca;" horiz-adv-x="1186" d="M101 884l354 887h277l355 -887l-355 -884h-282zM322 884l272 -708l274 708l-274 708z" />
<glyph unicode="&#x25fc;" horiz-adv-x="1263" d="M0 0v1265h1265v-1265h-1265z" />
<glyph unicode="&#xf700;" horiz-adv-x="1250" d="M178 1222v181q82 26 199.5 42t221.5 16q77 0 142.5 -10.5t119.5 -30.5l361 23v-178l-191 8q77 -130 77 -381q0 -158 -44.5 -315.5t-97.5 -286.5q-61 -150 -138 -290h-274l-186 666h-150v167h288l190 -686q55 114 100 242q37 109 69 239.5t32 263.5q0 112 -15.5 186.5 t-52 119.5t-93.5 63.5t-139 18.5q-61 0 -114.5 -3.5t-103 -10t-97.5 -17.5t-104 -27z" />
<glyph unicode="&#xf701;" d="M-1382 1677v168h900v-168h-900z" />
<glyph unicode="&#xf702;" d="M-1372 1667v170h699v192h191v-362h-890z" />
<glyph unicode="&#xf703;" d="M-1382 1677v168h495q-2 13 -2 43q0 104 63.5 161t149.5 57q94 0 156 -54.5t62 -163.5q0 -211 -218 -211h-706zM-751 1890q0 -40 14.5 -68t60.5 -28q53 0 66 25.5t13 70.5q0 46 -16.5 70t-62.5 24t-60.5 -25.5t-14.5 -68.5z" />
<glyph unicode="&#xf704;" d="M-1405 1677v168h492v195h156v-195h97v195h154v-363h-899z" />
<glyph unicode="&#xf705;" d="M-807 1872v218h205v-218l-34 -259h-136z" />
<glyph unicode="&#xf706;" d="M-1190 1882v166h370v-179h386v-167h-588v180h-168z" />
<glyph unicode="&#xf707;" d="M-1294 1702v209q0 48 41 93.5t127 45.5h39l137 -79l147 79h23q69 0 110.5 -44t41.5 -91v-60q53 0 89 8.5t89 24.5v-171q-18 -7 -45 -13q-48 -13 -130 -14q-67 0 -117 9q-30 5 -59 11v170l-129 -61h-45l-120 61v-178h-199z" />
<glyph unicode="&#xf708;" d="M-554 1765v171h158v154h205v-154h156v-171h-168l-15 -152h-155l-13 152h-168z" />
<glyph unicode="&#xf709;" d="M-900 1704v338h455v-170h-263v-168h-192z" />
<glyph unicode="&#xf70a;" d="M-396 1872v218h205v-218l-38 -259h-134z" />
<glyph unicode="&#xf70b;" d="M-734 1882v166h371v-179h386v-167h-587v180h-170z" />
<glyph unicode="&#xf70c;" d="M-996 1702v209q0 48 41.5 93.5t126.5 45.5h53l168 -120l178 120h38q69 0 113 -44t44 -91v-60q53 0 111.5 10t112.5 25v-173q-36 -7 -72 -13q-32 -5 -72.5 -9.5t-82.5 -4.5q-66 0 -117 9q-30 5 -58 11v170l-172 -102h-49l-163 102v-178h-200z" />
<glyph unicode="&#xf70d;" d="M-554 1765v171h158v154h205v-154h156v-171h-168l-15 -152h-155l-13 152h-168z" />
<glyph unicode="&#xf70e;" d="M-589 1704v338h528v-170h-335v-168h-193z" />
<glyph unicode="&#xf70f;" horiz-adv-x="2046" d="M120 1176v118q68 37 153.5 67.5t166.5 53.5t154.5 34.5t119.5 11.5q127 0 208.5 -30.5t128 -89t63.5 -145t17 -195.5v-247q0 -114 49.5 -176t196.5 -62q58 0 107.5 25.5t85.5 65.5t57 86.5t24 91.5v655h201v-960q0 -104 -20.5 -194.5t-72.5 -159t-137 -106.5t-217 -38 q-56 0 -118 6.5t-117 14t-97 15.5t-62 12v173q19 -5 56.5 -13.5t85.5 -15t105.5 -12t115.5 -5.5q96 0 154.5 34.5t89 86.5t41 113t10.5 115q-51 -94 -141 -128.5t-184 -34.5q-234 0 -324 106.5t-90 330.5v248q0 56 -8.5 103.5t-34.5 82.5t-74.5 54.5t-131.5 19.5 q-77 0 -160.5 -21.5t-136.5 -47.5v-939q0 -62 17.5 -87t61.5 -25q21 0 38.5 4t28.5 6v-165q-26 -8 -62 -14.5t-84 -6.5q-36 0 -71.5 12t-66 43.5t-49.5 85t-19 136.5v881z" />
<glyph unicode="&#xf710;" d="M-988 1702v338h195v-171h694v-167h-889z" />
<glyph unicode="&#xf711;" d="M-961 1845q0 104 60 171t167 67q109 0 168.5 -64.5t59.5 -173.5q0 -107 -62 -173t-166 -66q-107 0 -167 66t-60 173zM-826 1845q0 -38 19 -73.5t73 -35.5q61 0 75 31.5t14 77.5q0 45 -18 77t-71 32q-54 0 -73 -33t-19 -76z" />
<glyph unicode="&#xf712;" d="M-1240 1811v21q0 114 71.5 189t226.5 75q74 0 137 -6.5t124 -6.5q77 0 147.5 13t88.5 23v-160q-32 -10 -89.5 -18t-141.5 -8q-64 0 -142.5 6.5t-123.5 6.5q-72 0 -100 -26.5t-28 -87.5v-11q0 -85 85 -85q58 0 84.5 13.5t56.5 61.5h67q10 -30 47.5 -51.5t96.5 -21.5h145 v-156h-152q-61 0 -104.5 26t-65.5 72q-21 -41 -66.5 -69.5t-134.5 -28.5q-94 0 -161.5 58.5t-67.5 170.5z" />
<glyph unicode="&#xf713;" d="M-673 2353v195h191v-195l-24 -207h-141z" />
<glyph unicode="&#xf714;" d="M-988 2311v160h325v-149h341v-165h-519v154h-147z" />
<glyph unicode="&#xf715;" d="M-922 2132v195q0 48 39 90.5t124 42.5h51l122 -98l101 98h59q68 0 110 -41t42 -89v-43q53 0 103.5 9.5t104.5 25.5v-170q-30 -8 -64 -14q-66 -12 -150 -14q-66 0 -109 8q-26 5 -50 12v167l-130 -85h-35l-128 88v-182h-190z" />
<glyph unicode="&#xf716;" d="M-820 2311v181h157v150h205v-150h158v-181h-168l-14 -144h-154l-17 144h-167z" />
<glyph unicode="&#xf717;" d="M-841 1994v310h478v-166h-287v-144h-191z" />
<glyph unicode="&#xf718;" d="M-530 -508q30 5 63 10t78 5q41 0 76.5 -7.5t61 -30.5t39.5 -61t14 -100v-230h-191v188q0 29 -9 47.5t-57 18.5q-21 0 -42.5 -4t-32.5 -7v171z" />
<glyph unicode="&#xf719;" d="M-894 -500q23 5 62 11.5t87 6.5q74 0 119.5 -37t45.5 -141v-123q0 -32 25 -46.5t67 -14.5q41 0 66.5 16t25.5 45v293h205v-282q0 -117 -82.5 -164t-214.5 -47q-297 0 -297 187v74q0 30 -8 46t-45 16q-21 0 -36 -4t-20 -7v171z" />
<glyph unicode="&#xf71a;" d="M-432 -495h241v-239h-241v239z" />
<glyph unicode="&#xf71b;" horiz-adv-x="1349" d="M64 13v165q8 -2 25.5 -6t37.5 -4q43 0 62 15t19 73v828l-86 74v96q43 33 106.5 70t141 67.5t160 51.5t159.5 21q253 0 386.5 -117t133.5 -341v-1097q0 -101 -25.5 -172.5t-72 -116t-113 -64t-146.5 -19.5q-67 0 -143 15.5t-134 15.5q-38 0 -71 -5t-59 -10q-30 -8 -59 -16 v173q30 8 59 16q26 5 59.5 10t70.5 5q53 0 125 -15.5t136 -15.5q94 0 131 49.5t37 149.5v1097q0 135 -71.5 208.5t-243.5 73.5q-125 0 -210 -37t-151 -82l84 -72v-850q0 -77 -15.5 -126t-45 -77t-69.5 -40t-87 -12q-45 0 -74.5 6.5t-56.5 14.5z" />
<glyph unicode="&#xf71c;" horiz-adv-x="1349" d="M64 13v165q8 -2 25.5 -6t37.5 -4q43 0 62 15t19 73v828l-86 74v96q43 33 106.5 70t141 67.5t160 51.5t159.5 21q253 0 386.5 -117t133.5 -341v-1131q0 -178 -84 -258t-233 -80l-206 104l-172 -104q-19 0 -47 1.5t-57 4t-55.5 5t-42.5 5.5v183q26 -8 80.5 -17t110.5 -9 l170 92h30l176 -92q53 0 89 29.5t36 135.5v1131q0 135 -71.5 208.5t-243.5 73.5q-125 0 -210 -35.5t-151 -76.5v-7l84 -72v-850q0 -77 -15.5 -126t-45 -77t-69.5 -40t-87 -12q-45 0 -74.5 6.5t-56.5 14.5z" />
<glyph unicode="&#xf71d;" horiz-adv-x="1511" d="M144 1440h212l78 -1112l247 559h180l228 -559q8 85 17 166t15.5 151.5t10.5 125.5t4 86q0 117 -52.5 165t-164.5 50v160q74 0 126 8.5t82.5 36.5t43.5 78t13 136h221q0 -119 -35.5 -189t-81.5 -106q-50 -43 -114 -53q35 -8 65.5 -25.5t54.5 -48t37 -77.5t13 -113 q0 -38 -7.5 -131t-19.5 -217t-27 -264t-25 -267h-229l-274 623l-288 -623h-220z" />
<glyph unicode="&#xf8ff;" horiz-adv-x="2358" d="M133 317v1086q0 21 5.5 28t18.5 15l1103 546q15 5 26 5q10 0 22 -5l808 -407q33 -19 48 -35l59 -120q3 -10 3 -27v-1103q0 -26 -24 -34l-751 -416q-8 -2 -18.5 -3.5t-29.5 -1.5h-453q-13 0 -22 1.5t-18 3.5l-745 414q-32 8 -32 53zM216 322l684 -373v696q-8 5 -31 19.5 t-57.5 34.5t-74 44t-82.5 47q-99 56 -218 126q-13 6 -17.5 13.5t-4.5 12.5q0 16 8.5 31t28.5 15q11 0 25 -8l476 -274q18 -13 19 -33v-752h441l733 401v1022l-685 -381v-425l338 186v237q0 30 38 30q45 0 45 -30v-258q0 -26 -20 -40l-401 -205v-194q33 16 92.5 49t120.5 65 q69 38 152 80q8 2 19 2q13 0 25 -9t12 -30t-20 -32l-398 -208q-11 -5 -20 -10.5t-22 -5.5q-18 0 -25 11.5t-7 28.5v743h-437q-13 0 -28 5t-23 10l-686 381v-516l330 -186q16 -13 16 -38v-261q0 -15 -9.5 -27.5t-24.5 -12.5q-18 0 -29 12.5t-11 27.5v243l-272 154v-418z M256 1403l692 -372h465q69 38 105.5 56t54.5 28q21 11 25 16v137q0 15 10 27.5t24 12.5h288l212 119l-44 90l-802 403zM900 1366q0 21 36 44t62 23q11 0 44 -15t69.5 -36t63 -43.5t26.5 -37.5q0 -7 -11 -19t-24 -21t-28 -16t-23 -7q-13 0 -47 17.5t-72 40t-67 42t-29 28.5z M1313 1576q0 20 34 43.5t63 23.5q11 0 46 -15t71 -35t63.5 -42t27.5 -37q0 -7 -10 -19t-26.5 -23t-30.5 -17.5t-22 -6.5q-11 0 -46 17.5t-73 40.5t-67.5 42.5t-29.5 27.5z" />
<glyph horiz-adv-x="1001" d="M-948 1845q0 104 60 171t164 67q109 0 170 -64.5t61 -173.5q0 -107 -62.5 -173t-168.5 -66q-104 0 -164 66t-60 173zM-812 1845q0 -38 17.5 -73.5t70.5 -35.5q61 0 76 31.5t15 77.5q0 45 -17.5 77t-73.5 32q-53 0 -70.5 -33t-17.5 -76zM109 1243v179q51 13 127 25t137 12 q135 0 220.5 -32t133.5 -103.5t65.5 -185.5t17.5 -272v-866h-206v818q0 132 -3.5 221t-25 142.5t-66 75t-123.5 21.5q-94 0 -152 -9t-125 -26z" />
<glyph />
<glyph horiz-adv-x="3500" d="M133 445q0 165 101 271.5t246 157.5q-67 20 -127.5 54.5t-104 81.5t-70 106.5t-26.5 132.5q0 112 56 191.5t141 130t184.5 74.5t190.5 24q64 0 154 -13t174 -46.5t143 -87t59 -132.5q0 -59 -37.5 -93.5t-90.5 -34.5q-77 0 -112.5 45t-71 101t-84 101.5t-150.5 45.5 q-66 0 -111.5 -28t-73.5 -72.5t-41.5 -99t-13.5 -110.5q0 -55 12.5 -112.5t40.5 -102.5t71.5 -74t108.5 -29q66 0 126 24t121 24q50 0 82 -29.5t32 -77.5q0 -56 -32 -86.5t-82 -30.5q-33 0 -63.5 10.5t-61 22.5t-61 23t-61.5 11q-67 0 -113.5 -32t-74.5 -80t-40.5 -106.5 t-12.5 -114.5q0 -191 88 -287.5t290 -96.5q107 0 211 36t206 101t206 154.5t211 199.5v670q0 117 -33 178.5t-151 61.5h-39.5t-35.5 -3v66q157 43 298 82.5t278 93.5v-719q0 -18 2.5 -32.5t18.5 -14.5q13 0 31.5 13t24.5 21l187 205q149 168 258 273t184 159q144 96 287 95 q38 0 77.5 -8t74 -25.5t56 -46.5t21.5 -69q0 -55 -48 -83t-94 -28q-30 0 -56 9t-51 18t-52 19t-53 10q-81 0 -187 -76q-106 -82 -277 -279l-111 -130l586 -749q96 -125 178 -181q43 -26 85 -41t88 -15v-66h-801v66q46 0 77.5 5.5t49.5 10.5q43 10 43 38q0 40 -26.5 79.5 t-48.5 64.5l-450 562l-74 -81v-745h-317v426q-89 -82 -185.5 -165t-207 -149t-235.5 -109t-272 -43q-142 0 -259 31.5t-200.5 93.5t-131.5 152.5t-48 207.5zM3198 1890v28h92v-28h-28v-99h-30v99h-34zM3302 1791h26l5 86h3l24 -86h26l28 86h2l6 -86h26l-11 127h-32l-29 -94 h-2l-30 94h-32z" />
<glyph horiz-adv-x="10764" d="M216 0v1771q76 2 152 7q64 6 136.5 8.5t135.5 2.5q247 0 378.5 -105.5t131.5 -357.5q0 -160 -63 -255.5t-139 -128.5q37 -12 80.5 -37.5t80 -72.5t60.5 -119.5t24 -179.5q0 -157 -36 -264t-102.5 -170.5t-164 -90t-219.5 -26.5q-79 0 -160.5 1t-147.5 7q-77 5 -147 10z M434 178q43 -2 87 -5q38 -3 85 -4t86 -1q61 0 111.5 13.5t88.5 50.5t57 104.5t19 179.5q0 163 -58 242.5t-214 79.5h-262v-660zM434 1022h237q48 0 94.5 7t84 35t60 85t22.5 159q0 79 -11 135t-40 91.5t-79.5 53.5t-130.5 18q-46 0 -89.5 -3t-75.5 -5q-41 -3 -72 -6v-570z M1560 23v188q16 -6 57.5 -13t96 -13.5t113 -11.5t111.5 -5q112 0 183 90t71 253q0 109 -20 181t-56.5 113t-86.5 58.5t-114 17.5h-328v890h1669v-1583h370.5t268.5 1.5t182.5 1.5h113.5q160 0 211.5 77.5t51.5 224.5q0 88 -9 151.5t-38.5 104.5t-81.5 60t-140 19h-258v183 h234q97 0 150 34.5t78.5 84t30.5 103t5 90.5q0 150 -72 215t-168 65q-43 0 -93 -4t-101 -10.5t-96.5 -15t-71.5 -13.5v183q11 3 51 10t91.5 15t108.5 14.5t106 6.5q98 0 182 -24t145 -80t97.5 -150.5t36.5 -235.5q0 -128 -44 -230.5t-148 -133.5q124 -19 173.5 -124 t49.5 -292q0 -142 -30.5 -241.5t-90 -160.5t-149 -89t-208.5 -28h-1486v188h333v1399h-1242v-522h102q274 0 389.5 -127.5t115.5 -401.5q0 -158 -35.5 -264.5t-99.5 -170t-151.5 -91.5t-191.5 -28q-99 0 -204.5 15.5t-163.5 25.5zM5088 0v1771q74 2 151 7q66 6 142 8.5 t144 2.5q144 0 250 -32t177 -126t105.5 -266.5t34.5 -451.5q0 -283 -33 -463.5t-100 -284.5t-168 -143.5t-237 -39.5q-74 0 -155.5 1t-150.5 7q-82 5 -160 10zM5309 176q46 -3 93 -6q40 -2 88 -2h88q67 0 121.5 35.5t90 119.5t56 223.5t20.5 347.5q0 227 -20.5 366.5 t-57.5 215.5t-89 101.5t-118 25.5q-38 0 -83.5 -1.5t-86.5 -3.5q-49 -3 -102 -6v-1416zM6397 1299q0 135 41.5 228.5t112 152t166.5 84t205 25.5q33 0 71.5 -2.5t79.5 -9t78.5 -13t63.5 -14.5v-185q-64 16 -157 27t-160 11q-48 0 -97 -15t-88 -48t-64 -85t-25 -126 q0 -77 12 -128t39 -84t67.5 -53t101.5 -30q92 -19 169 -52.5t133 -93.5t88 -153.5t32 -231.5q0 -157 -40 -258t-109.5 -160t-166 -81t-208.5 -22q-33 0 -74.5 2.5t-85 7.5t-86.5 13t-74 16v184q58 -15 150 -26t193 -11q133 0 205 76t72 236q0 91 -17.5 151.5t-47 99.5 t-73 60t-93.5 32q-104 21 -183 57t-129.5 92t-76 135.5t-25.5 191.5zM7572 0v254h253v-254h-253zM7591 528v1243h215v-1243h-215zM8178 913q0 279 40.5 451.5t118 266.5t191.5 126t263 32q32 0 75 -4t86.5 -9t84 -11.5t63.5 -12.5v-182q-79 16 -175.5 24.5t-178.5 8.5 t-145 -24t-107 -100t-66 -216t-22 -369q0 -239 20.5 -381.5t61 -219.5t99 -101t132.5 -24q43 0 108 5t116 10v562h-224v187h434v-909q-101 -18 -210 -29.5t-213 -11.5q-145 0 -249.5 39.5t-171 143.5t-99 284.5t-32.5 463.5zM9545 0v1771h208l590 -1281v1281h205v-1771h-208 l-590 1280v-1280h-205z" />
</font>
</defs>
</svg>
